<?xml version="1.0" encoding="UTF-8"?><!DOCTYPE svg PUBLIC "-//W3C//DTD SVG 1.1//EN" "http://www.w3.org/Graphics/SVG/1.1/DTD/svg11.dtd"><svg xmlns="http://www.w3.org/2000/svg" xmlns:xlink="http://www.w3.org/1999/xlink"><symbol id="accommodation-travel" viewBox="0 0 24 24"><path d="M5.8,22.05 L5.8,22.425 C5.8,23.1 6.475,23.25 6.7,23.25 L18.1,23.25 L18.1,23.25 L18.1,23.25 C18.475,23.25 18.775,22.725 18.775,22.35 C18.775,22.2 18.7,21.825 18.7,21.75 C18.025,19.725 15.025,18.45 12.85,18.3 L12.85,18.15 L12.85,9.15 L12.85,9.075 L18.1,9.075 C17.65,6.225 13.375,3.75 12.25,3.15 C11.125,3.75 6.85,6.15 6.4,9 L11.575,9 L11.575,9.075 L11.575,18.075 C11.575,18.15 11.575,18.225 11.65,18.225 C9.175,18.6 6.025,20.175 5.8,22.05 L5.8,22.05 Z"/><path d="M1.75,9 L5.05,9 C5.575,4.95 11.65,1.95 11.875,1.875 L11.95,1.875 L12.025,1.875 L12.175,1.875 L12.25,1.875 L12.4,1.875 L12.4,1.875 C12.7,2.025 18.85,5.025 19.225,9.075 L22.6,9.075 L22.6,9.075 C22.825,9.075 23.05,8.85 23.125,8.7 C23.275,8.475 23.2,8.175 23.125,7.95 C20.8,4.2 16.9,1.95 12.475,1.8 C12.55,1.65 12.625,1.5 12.625,1.35 C12.625,1.2 12.55,1.05 12.4,0.9 C12.175,0.675 11.725,0.675 11.5,0.9 C11.575,1.05 11.5,1.2 11.5,1.425 C11.5,1.575 11.575,1.725 11.65,1.875 C7.375,2.025 3.475,4.275 1.15,7.95 C1,8.175 1,8.4 1.15,8.625 C1.3,8.775 1.525,9 1.75,9 L1.75,9 Z"/></symbol><symbol id="agribusiness" viewBox="0 0 24 24"><path d="M11.9825714,22.4910711 C17.1620714,22.4910711 21.3605714,18.2672528 21.3605714,13.0544586 C16.1810714,13.0544586 11.9825714,17.2800797 11.9825714,22.4910711 L11.9825714,22.4910711 Z M5.31423809,10.1710073 C5.31423809,11.6168628 6.48123809,12.7920789 7.91902976,12.7920789 C8.46969643,12.7920789 8.97023809,12.6232805 9.39786309,12.3324323 L9.37690476,12.5305797 C9.37690476,13.9764352 10.5439048,15.1516513 11.9816964,15.1516513 C13.4194881,15.1516513 14.5864881,13.9764352 14.5864881,12.5305797 L14.5664464,12.3324323 C14.9831131,12.6232386 15.4936548,12.7920789 16.0452798,12.7920789 C17.4830714,12.7920789 18.6500714,11.6168628 18.6500714,10.1710073 C18.6500714,9.12148857 18.0364881,8.23250859 17.1612381,7.81139297 C18.0364881,7.39304453 18.6500714,6.50041692 18.6500714,5.45454583 C18.6500714,4.00592317 17.4821548,2.83347422 16.0452798,2.83347422 C15.4936964,2.83347422 14.9940714,3.00227266 14.5664464,3.29312083 L14.5864881,3.09497344 C14.5873631,1.64815364 13.4212798,0.4729375 11.9825714,0.4729375 C10.5438631,0.4729375 9.37777976,1.64815364 9.37777976,3.09400911 L9.39873809,3.29215651 C8.98115476,3.00135026 8.47061309,2.83250989 7.91902976,2.83250989 C6.48032143,2.83250989 5.31423809,4.00495886 5.31423809,5.45358151 C5.31423809,6.500375 5.92782143,7.39208021 6.80307143,7.81042862 C5.92782143,8.23250859 5.31423809,9.12236903 5.31423809,10.1710073 L5.31423809,10.1710073 Z M11.9825714,5.19032136 C13.4212798,5.19032136 14.5873631,6.3655375 14.5873631,7.81139297 C14.5873631,9.26001563 13.4203631,10.4324646 11.9825714,10.4324646 C10.5447798,10.4324646 9.37777976,9.26001563 9.37777976,7.81139297 C9.37777976,6.3655375 10.5439048,5.19032136 11.9825714,5.19032136 L11.9825714,5.19032136 Z M2.6046131,13.0544586 C2.6046131,18.2672528 6.80311309,22.4910711 11.9826131,22.4910711 C11.9825714,17.2800797 7.78411309,13.0544586 2.6046131,13.0544586 L2.6046131,13.0544586 Z"/></symbol><symbol id="art-entertainment" viewBox="0 0 24 24"><ellipse transform="scale(-1 1) rotate(-19 0 120.96)" cx="18.293" cy="11.646" rx="1" ry="1.5"/><ellipse transform="scale(-1 1) rotate(-19 0 114.96)" cx="16.34" cy="17.319" rx="1" ry="1.5"/><path d="M15.2868774,1.89713723 C10.0738783,1.89713723 5.83261324,6.60743723 5.83261324,12.3971372 C5.83261324,18.1868372 10.0738783,22.8971372 15.2868774,22.8971372 C16.0724034,22.8971372 16.6774762,22.6652972 17.0852428,22.2083373 C17.9172181,21.2763572 17.7704714,19.6446572 17.6150926,17.9167772 C17.4613581,16.2111572 17.3026908,14.4475772 18.1202792,13.5323972 C18.5502427,13.0510772 19.2371155,12.8171372 20.2195369,12.8171372 C21.8070312,12.8171372 22.8326132,11.4987572 22.8326132,9.4583972 C22.8330243,6.40919723 20.4345186,1.89713723 15.2868774,1.89713723 L15.2868774,1.89713723 Z M8.98910428,9.87713724 C8.98910428,8.7191972 9.91110056,7.77713723 11.0443791,7.77713723 C12.1776576,7.77713723 13.0996539,8.7191972 13.0996539,9.87713724 C13.0996539,11.0350772 12.1776576,11.9771373 11.0443791,11.9771373 C9.91110056,11.9771373 8.98910428,11.0350772 8.98910428,9.87713724 L8.98910428,9.87713724 Z M11.866489,17.8571372 C10.7332105,17.8571372 9.8112142,16.9150772 9.8112142,15.7571372 C9.8112142,14.5991973 10.7332105,13.6571372 11.866489,13.6571372 C12.9997675,13.6571372 13.9217638,14.5991973 13.9217638,15.7571372 C13.9217638,16.9150772 12.9993565,17.8571372 11.866489,17.8571372 L11.866489,17.8571372 Z M15.9770386,9.45713726 C14.8437601,9.45713726 13.9217638,8.51507722 13.9217638,7.35713723 C13.9217638,6.19919723 14.8437601,5.25713723 15.9770386,5.25713723 C17.1103172,5.25713723 18.0323134,6.19919723 18.0323134,7.35713723 C18.0323134,8.51507722 17.1103172,9.45713726 15.9770386,9.45713726 L15.9770386,9.45713726 Z" transform="scale(-1 1) rotate(-19 0 98.045)"/><ellipse transform="scale(-1 1) rotate(-19 0 94.082)" cx="14.542" cy="7.181" rx="1" ry="1.5"/><path d="M-1.77733834,15.9622355 C-2.25971695,15.9622355 -2.71284956,16.1503488 -3.05405299,16.4911911 C-3.66677493,17.1039131 -4.09535533,19.3092787 -4.17514999,19.7450804 C-4.19645264,19.8617034 -4.15926327,19.9812148 -4.07513586,20.0653423 C-4.00689518,20.1335829 -3.91482441,20.1711334 -3.81986515,20.1711334 C-3.79820144,20.1711334 -3.77653773,20.1693281 -3.75487402,20.1649953 C-3.31871132,20.0852007 -1.11334562,19.6569813 -0.500984753,19.0442594 C0.202724766,18.3405499 0.202724766,17.1952617 -0.500984753,16.4915522 C-0.841827125,16.1499877 -1.29495973,15.9622355 -1.77733834,15.9622355 L-1.77733834,15.9622355 Z M11.2436346,4.7469328 C11.1833373,4.68663547 11.076463,4.61478416 10.9089303,4.61478416 C9.57191835,4.61478416 0.0980168363,13.3391213 0.00991774683,13.4272204 C-0.330924625,13.7684239 -0.518676779,14.2211954 -0.518676779,14.703574 C-0.518676779,15.1859526 -0.330924625,15.6394462 0.0102788066,15.9802886 C0.351121184,16.3207699 0.804614845,16.5088832 1.2866324,16.5088832 C1.76864996,16.5088832 2.22214361,16.3207699 2.56334702,15.9802886 C2.83378236,15.7098533 5.10738873,13.2178045 7.34597214,10.5979399 C11.8375814,5.34051845 11.549093,5.05203005 11.2436346,4.7469328 L11.2436346,4.7469328 Z" transform="rotate(135 3.607 12.393)"/></symbol><symbol id="beauty-products" viewBox="0 0 24 24"><path d="M10.68,0.08 C10.52,-1.82041882e-14 10.12,-1.82041882e-14 9.96,0.08 C9.8,0.16 9.48,0.32 9.48,0.56 L9.48,5.44 L8.68,5.44 C8.36,5.44 8.36,5.68 8.36,6 L8.36,10.88 L7.72,10.88 C7.4,10.88 7.32,11.12 7.32,11.44 L7.32,12 L7.32,22.4 C7.32,23.92 7.96,24 9.48,24 L14.92,24 C16.44,24 17.08,23.84 17.08,22.4 L17.08,11.44 C17.08,11.12 17.08,10.88 16.76,10.88 L15.96,10.88 L15.96,6 C15.96,5.68 15.96,5.44 15.64,5.44 L14.84,5.44 C14.8431584,3.50569098 14.8431584,2.50447038 14.84,2.4363382 C14.8344183,2.31593389 14.846543,2.20327149 14.76,2.16 L10.68,0.08 Z M10.6,20.72 C10.6,21.04 10.36,21.28 10.04,21.28 C9.72,21.28 9.48,21.04 9.48,20.72 L9.48,14.16 C9.48,13.84 9.72,13.6 10.04,13.6 C10.36,13.6 10.6,13.84 10.6,14.16 L10.6,20.72 L10.6,20.72 Z M14.92,10.88 L9.48,10.88 L9.48,6.56 L10.6,6.56 L15,6.56 L15,10.88 L14.92,10.88 Z"/></symbol><symbol id="book-video" viewBox="0 0 24 24"><path d="M20.8,22.64 L20.8,0.64 C20.8,0.24 20.48,0 20.16,0 L2.8,0 C2.4,0 2.16,0.32 2.16,0.64 L2.16,21.12 C2.16,22.64 3.44,24 4.88,24 L20.88,24 C21.28,24 21.52,23.68 21.52,23.36 C21.44,22.96 21.2,22.64 20.8,22.64 L20.8,22.64 Z M7.44,3.36 C7.44,2.96 7.76,2.72 8.08,2.72 L17.44,2.72 C17.84,2.72 18.08,3.04 18.08,3.36 L18.08,12.72 C18.08,13.12 17.76,13.36 17.44,13.36 L8.16,13.36 C7.76,13.36 7.52,13.04 7.52,12.72 L7.52,3.36 L7.44,3.36 Z M17.44,15.36 C17.44,15.76 17.12,16 16.8,16 L8.8,16 C8.4,16 8.16,15.68 8.16,15.36 C8.16,14.96 8.48,14.72 8.8,14.72 L16.8,14.72 C17.2,14.64 17.44,14.96 17.44,15.36 L17.44,15.36 Z M19.44,22.64 L4.8,22.64 C4.16,22.64 3.6,22 3.52,21.28 L19.52,21.28 L19.52,22.64 L19.44,22.64 Z M19.44,20 L3.44,20 C3.44,19.28 4,18.64 4.8,18.64 L5.44,18.64 L8.8,18.64 L19.44,18.64 L19.44,20 L19.44,20 Z"/></symbol><symbol id="business-equipment-supply" viewBox="0 0 24 24"><path d="M15.875,1.225 C15.8,1.075 15.65,1 15.5,1 C15.35,1 15.2,1.075 15.125,1.225 L13.1,4.975 L18.125,4.975 L15.875,1.225 L15.875,1.225 Z"/><path d="M18.95,8.65 L18.125,8.65 L18.125,5.875 L12.875,5.875 L12.875,8.65 L11.975,8.65 L11.975,5.875 L11.975,4.975 L11.975,2.65 C11.975,2.425 11.75,2.2 11.525,2.2 L6.95,2.2 C6.65,2.2 6.5,2.425 6.5,2.65 L6.5,8.65 L6.05,8.65 C5.825,8.65 5.6,8.875 5.6,9.1 L5.6,10.525 L19.475,10.525 L19.475,9.1 C19.475,8.875 19.25,8.65 18.95,8.65 L18.95,8.65 Z M8.3,7.75 L7.4,7.75 C7.175,7.75 6.95,7.525 6.95,7.3 C6.95,7.075 7.175,6.85 7.4,6.85 L8.3,6.85 C8.525,6.85 8.75,7.075 8.75,7.3 C8.825,7.525 8.6,7.75 8.3,7.75 L8.3,7.75 Z M8.3,4.975 L7.4,4.975 C7.175,4.975 6.95,4.75 6.95,4.525 C6.95,4.3 7.175,4.075 7.4,4.075 L8.3,4.075 C8.525,4.075 8.75,4.3 8.75,4.525 C8.825,4.75 8.6,4.975 8.3,4.975 L8.3,4.975 Z M5.525,21.175 C5.525,22.45 6.575,23.5 7.85,23.5 L17.15,23.5 C18.425,23.5 19.475,22.45 19.475,21.175 L19.475,11.425 L5.525,11.425 L5.525,21.175 L5.525,21.175 Z"/></symbol><symbol id="business-services" viewBox="0 0 24 24"><path d="M0,6 L0,15.3358608 L3.50094562,15.3358608 L3.50094562,6 L0,6 Z M20.4990544,6 L20.4990544,15.3358608 L24,15.3358608 L24,6 L20.4990544,6 Z M13.2561847,6.17320928 L9.42702547,9.35507289 C9.42294685,9.35857383 9.42194322,9.36061605 9.41790839,9.36411699 C8.94514131,9.77544893 8.75235471,10.0824877 8.75236406,10.3761295 C8.7523608,10.70198 8.83647516,10.9572573 9.02587543,11.1510638 C9.19990802,11.3291744 9.5315972,11.4856667 10.1016868,11.5248773 L15.1798814,8.69858723 C15.4391964,8.55154752 15.8070962,8.6456646 15.9639473,8.89916224 L19.1731475,14.1688206 L19.8386918,14.1688206 L19.8386918,7.16692352 L17.5047281,7.16692352 L13.2561847,6.17320928 Z M4.66792749,7.16698187 L4.66792749,14.1688789 L5.54316389,14.1688789 L8.15360521,18.0845407 C8.39160092,18.5493205 8.88293532,18.8413285 9.33585499,18.8368064 C9.74235652,18.8242614 18.7026,16.8793402 18.9999236,16.1472633 L15.2528177,9.99327193 L10.4937198,12.6372152 C10.4023804,12.6878623 10.2972508,12.7133316 10.1928573,12.7101516 C9.31262239,12.686812 8.63038905,12.4161889 8.18710723,11.9625538 C7.74382534,11.5089188 7.58537661,10.920439 7.58538221,10.3761879 C7.58535677,9.58765237 8.0788025,8.97454927 8.66119358,8.47070485 C8.66319691,8.46856538 9.18286854,8.0340105 10.2202085,7.16704022 L4.66792749,7.16698187 Z M1.75047281,13.0018971 C2.07270568,13.0018971 2.33397834,13.2631259 2.33396375,13.585388 C2.33398125,13.90765 2.07269985,14.1688789 1.75047281,14.1688789 C1.42821368,14.1688789 1.1669702,13.90765 1.16698187,13.585388 C1.16698479,13.2630968 1.42821368,13.0018971 1.75047281,13.0018971 Z M22.7561465,13.0018971 C23.0783998,13.0018971 23.3396433,13.2630968 23.3396375,13.585388 C23.3396433,13.9076208 23.0783881,14.1689081 22.7561465,14.1688789 C22.4338903,14.1688789 22.1726614,13.9076208 22.1726555,13.585388 C22.1726585,13.2631259 22.4338961,13.0018971 22.7561465,13.0018971 Z"/></symbol><symbol id="categories" viewBox="0 0 24 24"><path d="M16,20H20V16H16M16,14H20V10H16M10,8H14V4H10M16,8H20V4H16M10,14H14V10H10M4,14H8V10H4M4,20H8V16H4M10,20H14V16H10M4,8H8V4H4V8Z"/></symbol><symbol id="dating" viewBox="0 0 24 24"><path d="M13.499,1c-0.828,0-1.5,0.672-1.5,1.5c0-0.828-0.672-1.5-1.5-1.5s-1.5,0.672-1.5,1.5c0,1.5,3,4.5,3,4.5 s3-3,3-4.5C14.999,1.672,14.327,1,13.499,1z"/><circle cx="18.999" cy="7.5" r="2.5"/><path d="M18.999,11c-2.393,0-4,2.009-4,5v2c0,0.552,0.448,1,1,1h1v4c0,0.552,0.448,1,1,1h2c0.552,0,1-0.448,1-1v-4 h1c0.552,0,1-0.448,1-1v-2C22.999,13.009,21.392,11,18.999,11z"/><circle cx="4.999" cy="7.5" r="2.5"/><path d="M8.174,16.533C6.948,11.523,6.82,11,4.978,11c-1.799,0-1.928,0.524-3.154,5.539 c-0.219,0.895-0.479,1.957-0.794,3.219c-0.074,0.295-0.009,0.608,0.175,0.85S1.673,20.993,1.978,21c0,0,0.744,0.016,1.332,0.018 c0.191,0.573,0.479,1.465,0.736,2.283C4.176,23.717,4.563,24,4.999,24s0.823-0.283,0.954-0.699 c0.258-0.818,0.545-1.709,0.737-2.283C7.276,21.016,8.021,21,8.021,21c0.304-0.007,0.589-0.151,0.773-0.393 s0.249-0.554,0.175-0.85C8.653,18.493,8.393,17.429,8.174,16.533z"/></symbol><symbol id="education-schools" viewBox="0 0 24 24"><path d="M23.67168,6.81363158 L12.15168,3.02415789 C12.0528,2.99194737 11.94672,2.99194737 11.84784,3.02415789 L0.32784,6.81363158 C0.132,6.87852631 0,7.059 0,7.26315789 C0,7.46731578 0.132,7.64778947 0.32832,7.71268421 L11.84832,11.5021579 C11.89776,11.5182632 11.94864,11.5263158 12,11.5263158 C12.05136,11.5263158 12.10224,11.5182632 12.15168,11.5021579 L22.08,8.23610526 L22.08,20.5263157 C22.08,20.7882631 22.29456,21 22.56,21 C22.82544,21 23.04,20.7882631 23.04,20.5263157 L23.04,7.92063157 L23.67168,7.71268421 C23.868,7.64778947 24,7.46731578 24,7.26315789 C24,7.059 23.868,6.87852631 23.67168,6.81363158 L23.67168,6.81363158 Z"/><path d="M19.8047059,10.0870818 C19.6814118,9.99985274 19.5232942,9.97723781 19.3807059,10.0233907 L12,12.4367269 L4.61929412,10.0238523 C4.47576471,9.97723781 4.31764706,10.0003143 4.19529412,10.0875433 C4.07247059,10.1738493 4,10.3132311 4,10.4618435 L4,14.7692955 C4,16.8678689 8.12188237,18 12,18 C15.8781176,18 20,16.8678689 20,14.7692955 L20,10.4618435 C20,10.3132311 19.9275294,10.1738493 19.8047059,10.0870818 L19.8047059,10.0870818 Z"/></symbol><symbol id="electronics" viewBox="0 0 24 24"><path d="M24,16V5c0-1.103-0.897-2-2-2H2C0.897,3,0,3.897,0,5v11H24z"/><path d="M0,17v1c0,1.103,0.897,2,2,2h9v2H7v2h10v-2h-4v-2h9c1.103,0,2-0.897,2-2v-1H0z"/></symbol><symbol id="farming-agriculture" viewBox="0 0 24 24"><path d="M22.166113,14.9642857 L22.166113,14.8 L22.166113,8.63928571 C22.166113,8.22857143 21.8471761,7.98214286 21.5282392,7.98214286 L19.5348837,7.98214286 L19.5348837,6.50357143 C19.5348837,6.33928571 19.4551495,6.175 19.3754153,6.01071429 L18.3388704,4.94285714 C18.0996678,4.69642857 17.7009967,4.61428571 17.3820598,4.94285714 C17.1428571,5.18928571 17.0631229,5.6 17.3820598,5.92857143 L18.179402,6.83214286 L18.179402,7.9 L14.0332226,7.9 L12.8372093,1.575 C12.7574751,1.24642857 12.5182724,1 12.1993355,1 L1.51495017,1 C1.11627907,1 0.797342193,1.32857143 0.797342193,1.73928571 L0.797342193,8.63928571 L0.797342193,13.4857143 C0.797342193,13.65 0.877076412,13.8142857 0.956810631,13.9785714 C0.956810631,14.0607143 0.877076412,14.0607143 0.877076412,14.1428571 C0.717607973,14.3892857 0.637873754,14.5535714 0.558139535,14.8 C0.478405316,14.9642857 0.398671096,15.1285714 0.398671096,15.2928571 C0.318936877,15.5392857 0.239202658,15.7035714 0.239202658,15.95 C0.239202658,16.1142857 0.159468439,16.1964286 0.159468439,16.3607143 C0.0797342193,16.6071429 0,17.0178571 0,17.4285714 C0,21.0428571 2.87043189,24 6.37873754,24 C6.77740864,24 7.17607973,23.9178571 7.57475083,23.8357143 C7.73421927,23.8357143 7.81395349,23.7535714 7.97342193,23.7535714 C8.21262458,23.6714286 8.45182724,23.5892857 8.6910299,23.5071429 C8.85049834,23.425 9.00996678,23.3428571 9.16943522,23.2607143 C9.32890365,23.1785714 9.56810631,23.0964286 9.72757475,22.9321429 C9.88704319,22.85 10.0465116,22.7678571 10.2059801,22.6035714 C10.3654485,22.5214286 10.5249169,22.3571429 10.6843854,22.1928571 C10.8438538,22.0285714 11.0033223,21.9464286 11.0830565,21.7821429 C11.1627907,21.6178571 11.3222591,21.5357143 11.4019934,21.3714286 C11.5614618,21.2071429 11.641196,21.0428571 11.8006645,20.7964286 C11.8803987,20.7142857 11.8803987,20.55 11.9601329,20.4678571 C12.1993355,19.975 12.4385382,19.4 12.5980066,18.9071429 C12.5980066,18.825 12.5980066,18.825 12.6777409,18.7428571 C12.7574751,18.7428571 12.8372093,18.825 12.9169435,18.825 L15.0697674,18.825 C15.2292359,21.2071429 17.1428571,23.0964286 19.5348837,23.0964286 C22.0066445,23.0964286 24,21.0428571 24,18.4964286 C23.9202658,17.1 23.2026578,15.7857143 22.166113,14.9642857 L22.166113,14.9642857 Z M7.49501661,2.39642857 L11.641196,2.39642857 L12.6777409,7.9 L7.49501661,7.9 L7.49501661,2.39642857 L7.49501661,2.39642857 Z M2.15282392,2.39642857 L6.13953488,2.39642857 L6.13953488,7.9 L2.15282392,7.9 L2.15282392,2.39642857 L2.15282392,2.39642857 Z M1.35548173,17.4285714 C1.35548173,14.5535714 3.58803987,12.2535714 6.37873754,12.2535714 C9.16943522,12.2535714 11.4019934,14.5535714 11.4019934,17.4285714 C11.4019934,20.3035714 9.16943522,22.6035714 6.37873754,22.6035714 C3.58803987,22.6035714 1.35548173,20.3035714 1.35548173,17.4285714 L1.35548173,17.4285714 Z M14.8305648,11.35 C14.8305648,10.9392857 15.1495017,10.6928571 15.4684385,10.6928571 L18.0996678,10.6928571 C18.4983389,10.6928571 18.7375415,11.0214286 18.7375415,11.35 C18.7375415,11.7607143 18.4186047,12.0071429 18.0996678,12.0071429 L15.4684385,12.0071429 C15.1495017,12.0071429 14.8305648,11.7607143 14.8305648,11.35 L14.8305648,11.35 Z M19.4551495,21.7821429 C17.7009967,21.7821429 16.345515,20.3035714 16.345515,18.5785714 C16.345515,16.7714286 17.7807309,15.375 19.4551495,15.375 C21.2093023,15.375 22.5647841,16.8535714 22.5647841,18.5785714 C22.5647841,20.3857143 21.2093023,21.7821429 19.4551495,21.7821429 L19.4551495,21.7821429 Z"/></symbol><symbol id="fashion" viewBox="0 0 24 24"><path d="M23.0301818,1.30333333 L15.8867879,1.30333333 C15.7183637,1.30333333 15.5656363,1.4030303 15.4981818,1.55745455 C14.8898182,2.94939394 13.5161212,3.84878788 11.9998788,3.84878788 C10.4832121,3.84878788 9.1099394,2.94939394 8.50115153,1.55745455 C8.433697,1.4030303 8.28139393,1.30333333 8.11254547,1.30333333 L0.969575757,1.30333333 C0.735393939,1.30333333 0.545333333,1.49339394 0.545333333,1.72757576 L0.545333333,7.6669697 C0.545333333,7.90115151 0.735393939,8.09121213 0.969575757,8.09121213 L4.78775757,8.09121213 L4.78775757,22.939697 C4.78775757,23.174303 4.97781818,23.3639394 5.212,23.3639394 L18.7877576,23.3639394 C19.0223637,23.3639394 19.212,23.174303 19.212,22.939697 L19.212,8.09121213 L23.0301818,8.09121213 C23.2647879,8.09121213 23.4544243,7.90115151 23.4544243,7.6669697 L23.4544243,1.72757576 C23.4544243,1.49339394 23.2647879,1.30333333 23.0301818,1.30333333 L23.0301818,1.30333333 Z"/></symbol><symbol id="financial-insurance-services" viewBox="0 0 24 24"><path d="M21.2485951,7.47041324 L21.2485951,0.528264463 C21.2485951,0.272793388 21.041719,0.0654545455 20.7857851,0.0654545455 L4.1246281,0.0654545455 C3.86915702,0.0654545455 3.66181818,0.272793388 3.66181818,0.528264463 L3.66181818,7.47041324 L21.2485951,7.47041324 L21.2485951,7.47041324 Z M15.2320661,3.76793388 L17.0833058,3.76793388 C17.3392396,3.76793388 17.5461157,3.97527273 17.5461157,4.2307438 C17.5461157,4.48621487 17.3392396,4.69355372 17.0833058,4.69355372 L15.2320661,4.69355372 C14.9761322,4.69355372 14.7692562,4.48621487 14.7692562,4.2307438 C14.7692562,3.97527273 14.9761322,3.76793388 15.2320661,3.76793388 L15.2320661,3.76793388 Z"/><path d="M3.66181818,8.39603309 L3.66181818,23.4116581 C3.66181818,23.6795175 3.86915702,23.8960331 4.1246281,23.8960331 L20.7857851,23.8960331 C21.041719,23.8960331 21.2485951,23.6795175 21.2485951,23.4116581 L21.2485951,8.39603309 L3.66181818,8.39603309 L3.66181818,8.39603309 Z M9.21553719,19.0406612 C9.21553719,19.2965951 9.00819835,19.5034711 8.75272727,19.5034711 L6.9014876,19.5034711 C6.64601653,19.5034711 6.43867769,19.2965951 6.43867769,19.0406612 L6.43867769,17.1894215 C6.43867769,16.9334876 6.64601653,16.7266116 6.9014876,16.7266116 L8.75272727,16.7266116 C9.00819835,16.7266116 9.21553719,16.9334876 9.21553719,17.1894215 L9.21553719,19.0406612 L9.21553719,19.0406612 Z M9.21553719,13.4869422 C9.21553719,13.742876 9.00819835,13.9497521 8.75272727,13.9497521 L6.9014876,13.9497521 C6.64601653,13.9497521 6.43867769,13.742876 6.43867769,13.4869422 L6.43867769,11.6357025 C6.43867769,11.3802314 6.64601653,11.1728926 6.9014876,11.1728926 L8.75272727,11.1728926 C9.00819835,11.1728926 9.21553719,11.3802314 9.21553719,11.6357025 L9.21553719,13.4869422 L9.21553719,13.4869422 Z M13.8436364,19.0406612 C13.8436364,19.2965951 13.6367604,19.5034711 13.3808265,19.5034711 L11.5295868,19.5034711 C11.2741157,19.5034711 11.0667769,19.2965951 11.0667769,19.0406612 L11.0667769,17.1894215 C11.0667769,16.9334876 11.2741157,16.7266116 11.5295868,16.7266116 L13.3808265,16.7266116 C13.6367604,16.7266116 13.8436364,16.9334876 13.8436364,17.1894215 L13.8436364,19.0406612 L13.8436364,19.0406612 Z M13.8436364,13.4869422 C13.8436364,13.742876 13.6367604,13.9497521 13.3808265,13.9497521 L11.5295868,13.9497521 C11.2741157,13.9497521 11.0667769,13.742876 11.0667769,13.4869422 L11.0667769,11.6357025 C11.0667769,11.3802314 11.2741157,11.1728926 11.5295868,11.1728926 L13.3808265,11.1728926 C13.6367604,11.1728926 13.8436364,11.3802314 13.8436364,11.6357025 L13.8436364,13.4869422 L13.8436364,13.4869422 Z M18.4717356,19.0406612 C18.4717356,19.2965951 18.2648595,19.5034711 18.0089256,19.5034711 L16.157686,19.5034711 C15.9017521,19.5034711 15.694876,19.2965951 15.694876,19.0406612 L15.694876,17.1894215 C15.694876,16.9334876 15.9017521,16.7266116 16.157686,16.7266116 L18.0089256,16.7266116 C18.2648595,16.7266116 18.4717356,16.9334876 18.4717356,17.1894215 L18.4717356,19.0406612 L18.4717356,19.0406612 Z M18.4717356,13.4869422 C18.4717356,13.742876 18.2648595,13.9497521 18.0089256,13.9497521 L16.157686,13.9497521 C15.9017521,13.9497521 15.694876,13.742876 15.694876,13.4869422 L15.694876,11.6357025 C15.694876,11.3802314 15.9017521,11.1728926 16.157686,11.1728926 L18.0089256,11.1728926 C18.2648595,11.1728926 18.4717356,11.3802314 18.4717356,11.6357025 L18.4717356,13.4869422 L18.4717356,13.4869422 Z"/></symbol><symbol id="food" viewBox="0 0 24 24"><path d="M19.2569524 2L18 2 18 7.06666669 10.1902857 7.06666669 10.1902857 9.73333331 11.8569524 9.73333331 12.9681524 23.7333333 20.746019 23.7333333 21.857219 9.73333331 23.523619 9.73333331 23.523619 7.06666669 19.2569524 7.06666669z"/><path d="M9.14285715,9 L14.8571429,9 C15.156334,9.00002857 15.4285417,9.27223714 15.4285714,9.57142857 L15.4285714,11.2321429 C15.0565037,11.1168363 14.6731574,11.0150577 14.2857143,10.9375 L14.2857143,10.1428571 L9.71428571,10.1428571 L9.71428571,10.9375 C9.3268426,11.0150577 8.94349628,11.1168363 8.57142859,11.2321429 L8.57142859,9.57142857 C8.57142859,9.31392857 8.83177686,9 9.14285715,9 Z M12,11.8571429 C17.3316403,11.8571429 21.686838,15.7606594 21.9821429,21 L2.01785715,21 C2.313162,15.7606594 6.66835971,11.8571429 12,11.8571429 Z M0,22.1428571 L24,22.1428571 L24,23.8571428 L0,23.8571428 L0,22.1428571 Z"/><path stroke="#FFF" d="M13.7857143,10.6428571 L10.2142857,10.6428571 L10.2142857,11.3473303 L9.81242785,11.4277735 C9.461245,11.4980727 9.09782977,11.5924675 8.71943767,11.709734 L8.07142859,11.9105569 L8.07142859,9.57142857 C8.07142859,9.02611787 8.56570669,8.5 9.14285715,8.5 L14.8571906,8.5 C15.4324863,8.50005494 15.9285143,8.99608342 15.9285714,9.57142857 L15.9285714,11.9105569 L15.2805623,11.709734 C14.9021702,11.5924675 14.538755,11.4980727 14.1875721,11.4277735 L13.7857143,11.3473303 L13.7857143,10.6428571 Z M12,11.3571429 C17.6254944,11.3571429 22.1726504,15.4948626 22.4813506,20.9718632 L22.5111179,21.5 L1.48888209,21.5 L1.51864945,20.9718632 C1.82734954,15.4948626 6.37450558,11.3571429 12,11.3571429 Z M-0.5,21.6428571 L24.5,21.6428571 L24.5,24.3571428 L-0.5,24.3571428 L-0.5,21.6428571 Z"/></symbol><symbol id="government" viewBox="0 0 24 24"><path d="M23.4538636,19.1584091 L21.0675,19.1584091 L21.0675,8.65840912 L23.4538636,8.65840912 C23.6638636,8.65840912 23.8495227,8.5204773 23.9106136,8.31954547 C23.9717045,8.11861365 23.8934318,7.9009773 23.71875,7.78404547 L12.2642045,0.147681818 C12.1038409,0.0407727273 11.8952727,0.0407727273 11.7349091,0.147681818 L0.280363636,7.78404547 C0.105204545,7.9009773 0.0274090909,8.11813635 0.0885,8.31954547 C0.148636363,8.5204773 0.334772727,8.65840912 0.544772727,8.65840912 L2.93113636,8.65840912 L2.93113636,19.1584091 L0.544772727,19.1584091 C0.281318182,19.1584091 0.0675,19.37175 0.0675,19.6356818 L0.0675,23.4538636 C0.0675,23.7177955 0.281318182,23.9311363 0.544772727,23.9311363 L23.4538636,23.9311363 C23.7177955,23.9311363 23.9311363,23.7177955 23.9311363,23.4538636 L23.9311363,19.6356818 C23.9311363,19.37175 23.7177955,19.1584091 23.4538636,19.1584091 L23.4538636,19.1584091 Z M16.2947727,19.1584091 L14.3856818,19.1584091 L14.3856818,8.65840912 L16.2947727,8.65840912 L16.2947727,19.1584091 L16.2947727,19.1584091 Z M7.70386365,8.65840912 L9.61295452,8.65840912 L9.61295452,19.1584091 L7.70386365,19.1584091 L7.70386365,8.65840912 L7.70386365,8.65840912 Z"/></symbol><symbol id="home-living" viewBox="0 0 24 24"><path d="M21.1273018,11.7660631 C21.1273018,10.8460745 21.8788268,10.0976899 22.802676,10.0976899 L23.2813544,10.0976899 C23.539362,10.0976899 23.7810945,10.1610881 23.9993719,10.2654806 L23.9993719,10.2654806 L23.9993719,6.99928237 C23.9993719,6.07929367 23.2478469,5.33090909 22.3239977,5.33090909 L12.5110915,5.33090909 L12.5110915,12.4810803 L21.1273018,12.4810803 L21.1273018,11.7660631 L21.1273018,11.7660631 Z"/><path d="M23.2813544,11.051046 L22.802676,11.051046 C22.406809,11.051046 22.0846585,11.3718504 22.0846585,11.7660631 L22.0846585,18.2012172 C22.0846585,18.59543 22.406809,18.9162343 22.802676,18.9162343 L23.2813544,18.9162343 C23.6772213,18.9162343 23.9993719,18.59543 23.9993719,18.2012172 L23.9993719,11.7660631 C23.9993719,11.3718504 23.6772213,11.051046 23.2813544,11.051046 L23.2813544,11.051046 Z M0.783472065,10.0976899 L1.26215041,10.0976899 C2.18599962,10.0976899 2.93752463,10.8460745 2.93752463,11.7660631 L2.93752463,12.4810803 L11.5537349,12.4810803 L11.5537349,5.33090909 L1.74082876,5.33090909 C0.816979549,5.33090909 0.0654545455,6.07929367 0.0654545455,6.99928237 L0.0654545455,10.2650039 L0.0654545455,10.2650039 C0.283731871,10.1610881 0.525464437,10.0976899 0.783472065,10.0976899 L0.783472065,10.0976899 Z"/><path d="M2.937 13.196H21.127000000000002V17.963H2.937z"/><path d="M1.26215041,11.051046 L0.783472065,11.051046 C0.387605072,11.051046 0.0654545455,11.3718504 0.0654545455,11.7660631 L0.0654545455,18.2012172 C0.0654545455,18.59543 0.387605072,18.9162343 0.783472065,18.9162343 L1.26215041,18.9162343 C1.65801741,18.9162343 1.98016793,18.59543 1.98016793,18.2012172 L1.98016793,11.7660631 C1.98016793,11.3718504 1.65801741,11.051046 1.26215041,11.051046 L1.26215041,11.051046 Z"/></symbol><symbol id="home" viewBox="0 0 24 24"><path d="M9.545 16.273H14.318V22.955H9.545z"/><path d="M18.1363637,6.02663636 L17.1818182,5.23102273 L12.2372727,1.11072727 C12.0602045,0.962772727 11.8034318,0.962772727 11.6263637,1.11072727 L0.171818182,10.6561818 C-0.0305454545,10.8251364 0.00334090875,11.2976363 0.171818182,11.5 C0.340295454,11.7023636 0.797159094,11.6684773 1,11.5 L2.86363636,10 L2.86363637,22.4772727 C2.86363637,22.7412045 3.07745455,22.9545455 3.34090909,22.9545455 L8.59090913,22.9545455 L8.59090913,15.7954545 C8.59090913,15.5315227 8.8047273,15.3181818 9.06818183,15.3181818 L14.7954545,15.3181818 C15.0593864,15.3181818 15.2727273,15.5315227 15.2727273,15.7954545 L15.2727273,22.9545455 L20.5227273,22.9545455 C20.7866591,22.9545455 21,22.7412045 21,22.4772727 L21,10 L23.028183,11.5304413 C23.1179103,11.6048959 23.5107659,11.6155396 23.6922955,11.4158478 C23.8738251,11.216156 23.8941818,10.8246591 23.6922955,10.6561818 L18.1363637,6.02663636 Z"/></symbol><symbol id="instructions-classes" viewBox="0 0 24 24"><path d="M22.52,6.32 C22.36,6.16 22.2,6.16 22.04,6.24 L15.96,8.24 L15.96,8.24 C15.88,8.24 15.8,8.32 15.8,8.32 L15.08,9.04 L15.08,4.8 L15.08,4.32 L15.08,0.96 C15.08,0.72 14.84,0.48 14.6,0.48 C14.6,0.24 14.44,0 14.12,0 L3.64,0 C2.52,0 1.72,1.12 1.72,2.08 L1.72,2.88 L1.72,16.64 C1.72,16.88 1.96,17.12 2.2,17.12 L4.12,17.12 L6.92,17.12 L5,19.12 C4.92,19.2 4.84,19.36 4.84,19.44 C4.84,19.6 4.92,19.68 5,19.76 L9.08,23.84 C9.16,23.92 9.32,24 9.4,24 L9.4,24 C9.56,24 9.64,23.92 9.72,23.84 L12.44,21.12 L20.52,13.04 C20.6,12.96 20.6,12.96 20.6,12.88 L20.6,12.88 L22.6,6.8 C22.68,6.64 22.68,6.48 22.52,6.32 L22.52,6.32 Z M19.08,8.24 L20.68,9.84 L20.04,11.84 L17,8.88 L19.08,8.24 L19.08,8.24 Z M10.76,21.52 L7.4,18.16 L8.04,17.52 L11.4,20.8 L10.76,21.52 L10.76,21.52 L10.76,21.52 Z M6.52,3.84 L4.12,3.84 L3.64,3.84 C3.08,3.84 2.68,3.44 2.68,2.88 L2.68,2.88 L14.12,2.88 L14.12,3.84 L6.52,3.84 L6.52,3.84 Z M3.64,0.96 L14.12,0.96 L14.12,1.92 L2.68,1.92 C2.76,1.44 3.16,0.96 3.64,0.96 L3.64,0.96 Z M4.6,4.8 L6.52,4.8 L14.12,4.8 L14.12,9.6 C14.12,9.76 14.2,9.84 14.28,9.92 L13.16,11.04 L13.16,6.24 C13.16,6 12.92,5.76 12.68,5.76 L6.04,5.76 C5.8,5.76 5.56,6 5.56,6.24 L5.56,12.96 C5.56,13.2 5.8,13.44 6.04,13.44 L10.76,13.44 L9.64,14.56 C9.56,14.48 9.48,14.4 9.32,14.4 L6.52,14.4 C6.28,14.4 6.04,14.64 6.04,14.88 C6.04,15.12 6.28,15.36 6.52,15.36 L8.84,15.36 L7.72,16.48 C7.64,16.4 7.56,16.32 7.4,16.32 L4.6,16.32 L4.6,4.8 L4.6,4.8 Z M9.4,22.88 L6.04,19.52 L6.68,18.88 L10.04,22.24 L10.04,22.24 L9.4,22.88 L9.4,22.88 Z"/></symbol><symbol id="jobs" viewBox="0 0 24 24"><path d="M14,6H10V4H14M20,6H16V4L14,2H10L8,4V6H4C2.89,6 2,6.89 2,8V19A2,2 0 0,0 4,21H20A2,2 0 0,0 22,19V8C22,6.89 21.1,6 20,6Z"/></symbol><symbol id="kids-baby" viewBox="0 0 24 24"><path d="M5.09090909,19.5123967 C3.81494215,19.5123967 2.77685951,20.5504793 2.77685951,21.8264463 C2.77685951,23.1024132 3.81494215,24.1404959 5.09090909,24.1404959 C6.36687604,24.1404959 7.40495869,23.1024132 7.40495869,21.8264463 C7.40495869,20.5504793 6.36687604,19.5123967 5.09090909,19.5123967 L5.09090909,19.5123967 Z M18.0495868,19.5123967 C16.7736199,19.5123967 15.7355372,20.5504793 15.7355372,21.8264463 C15.7355372,23.1024132 16.7736199,24.1404959 18.0495868,24.1404959 C19.3255537,24.1404959 20.3636364,23.1024132 20.3636364,21.8264463 C20.3636364,20.5504793 19.3255537,19.5123967 18.0495868,19.5123967 L18.0495868,19.5123967 Z M20.8264463,9.33057855 L2.77685951,9.33057855 L2.77685951,6.09090909 C2.77685951,5.83543801 2.56952066,5.62809917 2.31404959,5.62809917 L0.462809917,5.62809917 C0.207338843,5.62809917 0,5.83543801 0,6.09090909 C0,6.34638017 0.207338843,6.55371901 0.462809917,6.55371901 L1.85123967,6.55371901 L1.85123967,9.79338844 C1.85123967,15.1522644 6.21090909,19.5123967 11.5702479,19.5123967 C16.929124,19.5123967 21.2892562,15.1522644 21.2892562,9.79338844 C21.2892562,9.53791738 21.0823801,9.33057855 20.8264463,9.33057855 L20.8264463,9.33057855 Z M15.2727273,7.47933884 L20.8264463,7.47933884 C21.0823801,7.47933884 21.2892562,7.272 21.2892562,7.01652892 C21.2892562,3.69910744 18.5901487,1 15.2727273,1 C15.0167934,1 14.8099174,1.20733884 14.8099174,1.46280992 L14.8099174,7.01652892 C14.8099174,7.272 15.0167934,7.47933884 15.2727273,7.47933884 L15.2727273,7.47933884 Z"/></symbol><symbol id="media-companies" viewBox="0 0 24 24"><path d="M10.0785098,0.470755294 C9.165379,0.741098067 8.25773707,1.76042212 7.53071567,3.29305921 C7.24529607,3.89475396 6.9942549,4.58568031 6.78439216,5.33472588 C7.82225967,5.15147796 8.9242408,5.03536717 10.0785098,5.00874549 L10.0785098,0.470755294 Z M11.176549,0.470755294 L11.176549,5.00874549 C12.3308213,5.03536745 13.4327997,5.15147796 14.4706667,5.33472588 C14.2608039,4.58568031 14.0097628,3.89475396 13.7243431,3.29305921 C12.9973217,1.76042212 12.0896795,0.741098067 11.176549,0.470755294 Z M7.77091173,0.873941569 C4.45904514,1.84270781 1.85194647,4.45945357 0.882431373,7.7710004 C1.42171055,7.30553113 2.07681035,6.88879341 2.82115686,6.53570627 C3.63819604,6.14813686 4.57389098,5.83235204 5.59199019,5.58350039 C5.84221796,4.56867937 6.15769259,3.63603588 6.54419608,2.82124549 C6.89824153,2.07488023 7.30535413,1.41402039 7.77091173,0.873941569 Z M13.4841471,0.873941569 C13.9497047,1.41402039 14.3568173,2.07488023 14.7108627,2.82124549 C15.0973663,3.63603588 15.4128409,4.56867937 15.6630686,5.58350039 C16.6811667,5.83235204 17.6168639,6.14813686 18.4339019,6.53570627 C19.1782477,6.88879341 19.833348,7.30553087 20.3726275,7.7710004 C19.4031123,4.45945357 16.7960137,1.84270781 13.4841471,0.873941569 Z M10.0785098,6.11536314 C8.80959427,6.14684475 7.6042456,6.28439173 6.50130392,6.50997098 C6.27672553,7.61066033 6.14667679,8.8128746 6.11527451,10.0785984 L10.0785098,10.0785984 L10.0785098,6.11536314 Z M11.176549,6.11536314 L11.176549,10.0785984 L15.1397843,10.0785984 C15.1083821,8.8128746 14.9783333,7.61066033 14.7537549,6.50997098 C13.6508143,6.28439173 12.4454684,6.14684475 11.176549,6.11536314 Z M5.33463725,6.79305921 C4.5859351,7.00287255 3.89443063,7.24549667 3.29297059,7.53080433 C1.76474541,8.25573093 0.74406369,9.16812547 0.470666667,10.0785984 L5.00865686,10.0785984 C5.03558627,8.9273968 5.15063416,7.82853873 5.33463725,6.79305921 Z M15.9204216,6.79305921 C16.1044247,7.82853873 16.2194723,8.9273968 16.2464019,10.0785984 L20.7843921,10.0785984 C20.5109944,9.1681246 19.4903109,8.25573093 17.9620883,7.53080433 C17.360629,7.24549667 16.6691223,7.00287255 15.9204216,6.79305921 Z M0.470666667,11.1766377 C0.741008588,12.0877791 1.76033019,12.9888347 3.29297059,13.7158533 C3.89443063,14.0011601 4.5859351,14.2511293 5.33463725,14.4621769 C5.15063388,13.4266951 5.03558655,12.3278381 5.00865686,11.1766377 L0.470666667,11.1766377 Z M6.11527451,11.1766377 C6.14675612,12.445557 6.27572467,13.6509051 6.50130392,14.7538435 C7.6042094,14.9813169 8.80964613,15.1079345 10.0785098,15.1398729 L10.0785098,11.1766377 L6.11527451,11.1766377 Z M11.176549,11.1766377 L11.176549,15.1398729 C12.1764169,15.1147056 13.1312063,15.0282907 14.0331667,14.88252 L13.9559608,14.6337455 C13.8639209,14.3272959 14.1013118,13.9668135 14.4191961,13.9303141 C14.4914449,13.9246263 14.5648049,13.9334298 14.6336569,13.9560494 L14.8824314,14.0332553 C15.0278779,13.131299 15.1149769,12.1765462 15.1397843,11.1766377 L11.176549,11.1766377 Z M16.2464019,11.1766377 C16.2204937,12.2841829 16.1095462,13.3412551 15.9375784,14.3420788 L16.1434608,14.3935494 C16.8051261,14.1969115 17.4218949,13.9720981 17.9620883,13.7158533 C19.4947261,12.9888347 20.5140497,12.0877791 20.7843921,11.1766377 L16.2464019,11.1766377 Z M0.873852941,13.4842357 C1.84284016,16.7968575 4.45828996,19.4123073 7.77091173,20.3812945 C7.3053544,19.8412154 6.89824153,19.1803539 6.54419608,18.4339906 C6.15769259,17.6192024 5.84221796,16.6865586 5.59199019,15.6717357 C4.57405102,15.4212427 3.63808596,15.0984719 2.82115686,14.7109514 C2.07479079,14.3569032 1.41393177,13.9497944 0.873852941,13.4842357 Z M20.3812059,13.4842357 C19.8411271,13.9497944 19.1802672,14.3569032 18.4339019,14.7109514 C18.2762348,14.7857429 18.1112003,14.8554986 17.9449314,14.9254121 L19.6005686,15.3972259 C19.9224025,14.7933285 20.1856665,14.1527151 20.3812059,13.4842357 Z M15.2941961,15.2942847 L17.2157647,21.8739416 L18.5883137,20.5013925 L21.0190194,22.9390036 L22.963742,21.0406502 L20.5184608,18.5884023 L21.8824314,17.2072749 L15.2941961,15.2942847 Z M6.78439216,15.9290886 C6.9938069,16.6750083 7.2463106,17.3626205 7.53071567,17.9621769 C8.25773707,19.4948161 9.1653796,20.5141353 10.0785098,20.7844808 L10.0785098,16.2464906 C8.92445933,16.2194947 7.82208973,16.1139097 6.78439216,15.9290886 Z M14.3419902,15.9462455 C13.3414492,16.1173757 12.2836943,16.2205919 11.176549,16.2464906 L11.176549,20.7844808 C12.0896793,20.5141353 12.9973217,19.4948161 13.7243431,17.9621769 C13.9797781,17.4236927 14.2061762,16.8111205 14.4020392,16.1521279 L14.3419902,15.9462455 Z M14.9253235,17.9364416 C14.8550337,18.1047875 14.786558,18.2744175 14.7108627,18.4339906 C14.3568173,19.1803539 13.9497047,19.8412154 13.4841471,20.3812945 C14.1564139,20.1846472 14.7988091,19.9164111 15.4057157,19.5920788 L14.9253235,17.9364416 Z"/></symbol><symbol id="medical" viewBox="0 0 24 24"><path d="M22.5,6 L18,6 L18,1.5 C18,0.67125 17.32875,0 16.5,0 L7.5,0 C6.67125,0 6,0.67125 6,1.5 L6,6 L1.5,6 C0.67125,6 0,6.67125 0,7.5 L0,22.5 C0,23.32875 0.67125,24 1.5,24 L22.5,24 C23.32875,24 24,23.32875 24,22.5 L24,7.5 C24,6.67125 23.32875,6 22.5,6 Z M9,3 L15,3 L15,6 L9,6 L9,3 Z M16.5,16.5 L13.5,16.5 L13.5,19.5 L10.5,19.5 L10.5,16.5 L7.5,16.5 L7.5,13.5 L10.5,13.5 L10.5,10.5 L13.5,10.5 L13.5,13.5 L16.5,13.5 L16.5,16.5 Z"/></symbol><symbol id="mining" viewBox="0 0 24 24"><path d="M22.5,21 L22.5,3 L16.5,3 L16.5,10.5 L9,3 L9,10.5 L1.5,3 L1.5,21 C0,21 0,21.67125 0,22.5 L0,24 L24,24 L24,22.5 C24,21.67125 24,21 22.5,21 Z M7.5,18 L4.5,18 L4.5,15 L7.5,15 L7.5,18 Z M13.5,18 L10.5,18 L10.5,15 L13.5,15 L13.5,18 Z M22.5,1.5 L16.5,1.5 L16.5,0 L22.5,0 L22.5,1.5 Z"/></symbol><symbol id="mobile" viewBox="0 0 24 24"><path d="M6.17670588,0.470749804 C5.56839573,0.470749804 5.07866667,0.960478039 5.07866667,1.56878902 L5.07866667,2.11780863 L18.2551373,2.11780863 L18.2551373,1.56878902 C18.2551373,0.960478039 17.7654082,0.470749804 17.1570981,0.470749804 L6.17670588,0.470749804 Z M5.07866667,3.21584784 L5.07866667,18.0393773 L18.2551373,18.0393773 L18.2551373,3.21584784 L5.07866667,3.21584784 Z M5.07866667,19.1374165 L5.07866667,22.4315341 C5.07866667,23.0398479 5.56839573,23.5295733 6.17670588,23.5295733 L17.1570981,23.5295733 C17.7654082,23.5295733 18.2551373,23.0398479 18.2551373,22.4315341 L18.2551373,19.1374165 L5.07866667,19.1374165 Z M9.69386275,20.7844753 C9.71100588,20.7836792 9.7281891,20.7836792 9.74533333,20.7844753 L13.5884706,20.7844753 C13.8785239,20.7803741 14.1453074,21.0434127 14.1453074,21.3334949 C14.1453074,21.6235771 13.8785239,21.8866157 13.5884706,21.8825145 L9.74533333,21.8825145 C9.45783345,21.8960479 9.18394541,21.6467381 9.1704689,21.3592354 C9.15699212,21.0717328 9.40635737,20.7978944 9.69386275,20.7844753 Z"/></symbol><symbol id="movie-theaters" viewBox="0 0 24 24"><path d="M23.36,22.4 L16.64,22.4 C20.24,20.32 22.72,16.48 22.72,12.16 C22.72,5.92 17.6,0.72 11.36,0.72 C5.12,0.72 0,5.76 0,12 C0,18.24 5.12,23.36 11.36,23.36 C11.44,23.36 11.28,23.36 11.36,23.36 L11.36,23.36 L23.28,23.28 C23.68,23.2 24,23.2 24,22.8 C24,22.48 23.68,22.4 23.36,22.4 L23.36,22.4 Z M11.28,3.36 C12.96,3.36 14.32,4.48 14.32,6.32 C14.32,7.76 13.2,9.36 11.52,9.36 C9.84,9.36 8.32,8.24 8.4,6.4 C8.4,4.88 9.6,3.36 11.28,3.36 L11.28,3.36 Z M12.4,12.16 C12.4,12.64 12.08,13.2 11.36,13.2 C10.72,13.2 10.32,12.72 10.32,12.16 C10.32,11.6 10.64,11.12 11.36,11.12 C12,11.12 12.4,11.6 12.4,12.16 L12.4,12.16 Z M5.76,14.96 C4.08,14.96 2.8,13.76 2.8,11.92 C2.8,10.48 4,8.96 5.68,8.96 C7.36,8.96 8.72,10.16 8.8,11.92 C8.72,13.44 7.36,14.96 5.76,14.96 L5.76,14.96 Z M11.36,20.56 C9.68,20.56 8.32,19.36 8.32,17.6 C8.32,16.08 9.68,14.56 11.28,14.56 C12.96,14.56 14.24,15.84 14.24,17.6 C14.32,19.12 13.04,20.56 11.36,20.56 L11.36,20.56 Z M13.92,12 C13.92,10.48 15.12,9.04 16.8,9.04 C18.48,9.04 19.92,10.16 19.92,12 C19.92,13.52 18.72,15.04 17.12,15.04 C15.44,14.96 13.92,13.76 13.92,12 L13.92,12 Z"/></symbol><symbol id="party" viewBox="0 0 24 24"><path d="M19.2222222,8.66666665 C19.2222222,3.888 16.032,0 12.1111111,0 C8.19022222,0 5,3.888 5,8.66666665 C5,12.8795555 7.48044444,16.396 10.7537778,17.1706666 L9.53822222,19.6026666 C9.40044444,19.8782222 9.4151111,20.2053333 9.57733333,20.4675555 C9.7391111,20.7293333 10.0253333,20.8888889 10.3333333,20.8888889 L11.6666667,20.8888889 L11.6666667,23.5555555 C11.6666667,23.8013333 11.8657778,24 12.1111111,24 C12.3564444,24 12.5555555,23.8013333 12.5555555,23.5555555 L12.5555555,20.8888889 L13.8888889,20.8888889 C14.1968889,20.8888889 14.4831111,20.7293333 14.6448889,20.4675555 C14.8066666,20.2053333 14.8213333,19.8782222 14.684,19.6026666 L13.4684444,17.1706666 C16.7417778,16.396 19.2222222,12.8795555 19.2222222,8.66666665 L19.2222222,8.66666665 Z M15.6666667,9.11111107 C15.4208889,9.11111107 15.2222222,8.91199997 15.2222222,8.66666665 C15.2222222,5.9711111 13.8262222,3.77777777 12.1111111,3.77777777 C11.8657778,3.77777777 11.6666667,3.57866666 11.6666667,3.33333333 C11.6666667,3.088 11.8657778,2.88888889 12.1111111,2.88888889 C14.3168889,2.88888889 16.1111111,5.48088888 16.1111111,8.66666665 C16.1111111,8.91199997 15.9124445,9.11111107 15.6666667,9.11111107 L15.6666667,9.11111107 Z"/></symbol><symbol id="pets" viewBox="0 0 24 24"><path d="M4,19.7263158 C4,22.3052632 5.24352332,24 7.15025907,24 C8.97409326,24 9.88601036,23.1894737 10.6321244,22.5263158 C11.2124352,22.0105263 11.5440415,21.7157895 12.0414508,21.7157895 C12.6217617,21.7157895 12.8704663,21.9368421 13.4507772,22.3789474 C14.1139896,22.9684211 15.0259067,23.7789474 17.2642487,23.7789474 C18.9222798,23.7789474 20,22.2315789 20,19.6526316 C20,15.9684211 17.8445596,10 12.0414508,10 C6.40414508,10.0736842 4,14.9368421 4,19.7263158 L4,19.7263158 Z"/><path d="M3.83618083,10.9903247 C4.40176999,10.9903247 4.82596186,10.8528017 5.25015373,10.5089943 C6.4520307,9.615095 6.38133206,7.68977345 5.17945509,6.17702081 C3.97757812,4.80179113 1.99801605,4.25169925 0.866837721,5.14559855 C-0.33503925,6.03949784 -0.264340605,7.96481939 0.937536366,9.40881055 C1.71522147,10.3714713 2.77570115,10.9903247 3.83618083,10.9903247 L3.83618083,10.9903247 Z M18.7498463,10.5186696 C19.1033395,10.7937155 19.59823,11 20.1638192,11 C21.2242989,11 22.2847785,10.4499081 23.0624636,9.48724735 C24.2643406,7.97449471 24.3350393,6.11793464 23.1331623,5.22403535 C22.001984,4.33013606 20.0224219,4.81146644 18.8205449,6.25545761 C17.6186679,7.69944877 17.5479693,9.62477032 18.7498463,10.5186696 L18.7498463,10.5186696 Z M14.7978351,7.01916089 L15.0746484,7.01916089 C16.4587148,7.01916089 17.7043746,5.67301826 17.9811879,3.8557257 C18.1887979,2.71150446 17.9811879,1.63459035 17.4275613,0.894211903 C17.0815447,0.423061981 16.5279182,0.0865263219 15.9742916,0.0192191901 C14.5210219,-0.182702205 13.1369554,1.23074756 12.7909388,3.11534725 C12.5833289,4.25956849 12.7909388,5.3364826 13.3445654,6.07686105 C13.7597853,6.6153181 14.2442086,6.95185376 14.7978351,7.01916089 L14.7978351,7.01916089 Z M9.09580693,7.03312951 L9.37262021,7.03312951 C9.92624678,6.96582238 10.41067,6.62928672 10.82589,6.15813679 C11.3795165,5.41775835 11.5871265,4.27353711 11.3795165,3.196623 C11.0334999,1.31202331 9.6494335,-0.10142646 8.19616376,0.100494935 C7.64253719,0.100494935 7.15811395,0.437030594 6.74289402,0.908180516 C6.18926745,1.64855897 5.98165749,2.79278021 6.18926745,3.86969431 C6.46608074,5.68698687 7.78094383,7.03312951 9.09580693,7.03312951 L9.09580693,7.03312951 Z"/></symbol><symbol id="picture" viewBox="0 0 24 24"><path d="M 4,2.00001L 20,2.00001C 21.1046,2.00001 22,2.89543 22,4L 22,20C 22,21.1046 21.1046,22 20,22L 4,22C 2.89543,22 2,21.1046 2,20L 2,4C 2,2.89543 2.89543,2.00001 4,2.00001 Z M 7,4C 5.61929,4 4.5,5.11929 4.5,6.5C 4.5,7.88071 5.61929,9 7,9C 8.38071,9 9.5,7.88071 9.5,6.5C 9.5,5.11929 8.38071,4 7,4 Z M 4,18L 4,20L 20,20L 20,14L 17,11L 11,17L 8,14L 4,18 Z"/></symbol><symbol id="professional-services" viewBox="0 0 24 24"><path d="M12,16c-4.71,0-8,2.467-8,6v2h16v-2C20,18.467,16.71,16,12,16z"/><path d="M19,7v2c0,1.478-0.805,2.771-2,3.463V11h-3v4h1c3.309,0,6-2.691,6-6V7H19z"/><path d="M12,4C9.243,4,7,6.243,7,9s2.243,5,5,5v-2c-1.654,0-3-1.346-3-3c0-0.502,0.136-0.971,0.356-1.388 c1.501,0.759,3.099,1.226,4.773,1.353c0.288,0.021,0.579,0.03,0.871,0.033c0,0,0,0.001,0,0.002h2C17,6.243,14.757,4,12,4z"/></symbol><symbol id="property-for-rent" viewBox="0 0 24 24"><path d="M24 9.42101341L24 11 0 11 0 9.42101341 4.90935418 1 19.0906458 1z"/><path d="M2 12L2 23 13.6113187 23 13.6113187 18.2861381 17.3056593 18.2861381 17.3056593 23 21 23 21 12z"/></symbol><symbol id="property-for-sale" viewBox="0 0 24 24"><path d="M24 9.42101341L24 11 0 11 0 9.42101341 4.90935418 1 19.0906458 1z"/><path d="M2 12L2 23 13.6113187 23 13.6113187 18.2861381 17.3056593 18.2861381 17.3056593 23 21 23 21 12z"/></symbol><symbol id="recruitment" viewBox="0 0 24 24"><path d="M9.39130435,3.13043478 C9.39130435,1.40321739 10.7913913,0 12.5217391,0 C14.2489565,0 15.6521739,1.40321739 15.6521739,3.13043478 C15.6521739,4.86078261 14.2489565,6.26086957 12.5217391,6.26086957 C10.7913913,6.26086957 9.39130435,4.86078261 9.39130435,3.13043478 Z M18.7826087,8.82213439 C18.7826087,7.98355731 18.0821739,7.30434783 17.2173913,7.30434783 L7.82608696,7.30434783 C6.96130435,7.30434783 6.26086957,7.98355731 6.26086957,8.82213439 L6.26086957,16.4110672 L9.39130435,16.4110672 L9.39130435,22.4822134 C9.39130435,23.3207905 10.0917391,24 10.9565217,24 L14.0869565,24 C14.9517391,24 15.6521739,23.3207905 15.6521739,22.4822134 L15.6521739,16.4110672 L18.7826087,16.4110672 L18.7826087,8.82213439 Z M18.7826087,5.2173913 C19.9346087,5.2173913 20.8695652,4.28243478 20.8695652,3.13043478 C20.8695652,1.97843478 19.9346087,1.04347826 18.7826087,1.04347826 C17.6306087,1.04347826 16.6956522,1.97843478 16.6956522,3.13043478 C16.6956522,4.28243478 17.6306087,5.2173913 18.7826087,5.2173913 Z M22.5391304,7.30434783 L19.6173913,7.30434783 L19.6173913,17.5304348 L16.6956522,17.5304348 L16.6956522,21.9130435 L19.6173913,21.9130435 C20.4245217,21.9130435 21.0782609,21.2593043 21.0782609,20.4521739 L21.0782609,16.0695652 L24,16.0695652 L24,8.76521739 C24,7.95808696 23.3462609,7.30434783 22.5391304,7.30434783 Z M5.2173913,5.2173913 C6.3693913,5.2173913 7.30434783,4.28243478 7.30434783,3.13043478 C7.30434783,1.97843478 6.3693913,1.04347826 5.2173913,1.04347826 C4.0653913,1.04347826 3.13043478,1.97843478 3.13043478,3.13043478 C3.13043478,4.28243478 4.0653913,5.2173913 5.2173913,5.2173913 Z M4.3826087,7.30434783 L1.46086957,7.30434783 C0.65373913,7.30434783 0,7.95808696 0,8.76521739 L0,16.0695652 L2.92173913,16.0695652 L2.92173913,20.4521739 C2.92173913,21.2593043 3.57547826,21.9130435 4.3826087,21.9130435 L7.30434783,21.9130435 L7.30434783,17.5304348 L4.3826087,17.5304348 L4.3826087,7.30434783 Z"/></symbol><symbol id="resturant-guide" viewBox="0 0 24 24"><path d="M22.72,14.64 L20.16,14.64 C19.84,14.64 19.52,14.96 19.52,15.28 L19.52,15.76 L17.36,14.72 C17.28,14.64 17.2,14.64 17.04,14.64 L13.2,14.64 C12.08,14.64 11.28,15.68 11.12,16.72 L11.12,17.12 C11.12,17.28 11.2,17.44 11.28,17.52 C11.44,17.84 11.68,18 12,18.16 C11.52,18.32 11.12,18.4 10.88,18.4 C10.56,18.4 9.2,17.84 8.16,17.44 C5.28,16.24 4.16,15.84 3.52,16.32 C3.44,16.4 2.96,16.48 2.96,17.2 L2.96,18.16 C2.96,20.08 9.68,23.92 11.2,23.92 C12.64,23.92 16.24,23.52 16.4,23.52 C16.48,23.52 16.56,23.52 16.56,23.44 L19.36,22.16 L19.36,22.88 C19.36,23.2 19.68,23.52 20,23.52 L22.56,23.52 C22.88,23.52 23.2,23.2 23.2,22.88 L23.2,15.2 C23.36,14.88 23.12,14.64 22.72,14.64 L22.72,14.64 Z M19.6,20.72 L16.4,22.24 C15.84,22.32 12.72,22.64 11.44,22.64 C10.16,22.64 4.64,19.12 4.48,18.16 C4.48,18.16 4.56,17.52 4.56,17.44 C5.2,17.52 6.88,18.24 7.92,18.64 C9.6,19.36 10.56,19.68 11.12,19.68 C12.32,19.68 16,18.4 16.4,18.24 C16.72,18.16 16.88,17.76 16.8,17.44 C16.72,17.12 16.32,16.96 16,17.04 C15.6,17.2 15.12,17.36 14.56,17.52 L14.48,17.52 C13.68,17.52 12.56,17.92 12.4,17.04 C12.16,16.16 13.12,16 13.44,16 L17.12,16 L19.68,17.28 L19.68,20.72 L19.6,20.72 Z M23.36,12.08 L21.92,12.08 C21.76,7.28 18.08,3.28 13.44,2.56 C13.52,2.4 13.6,2.16 13.6,1.92 C13.6,0.96 12.8,0.16 11.84,0.16 C10.88,0.16 10.08,0.96 10.08,1.92 C10.08,2.16 10.16,2.4 10.24,2.64 C5.68,3.44 2.16,7.36 2,12.08 L0.64,12.08 C0.32,12.08 0,12.4 0,12.72 C0,13.04 0.32,13.36 0.64,13.36 L23.36,13.36 C23.68,13.36 24,13.04 24,12.72 C24,12.4 23.68,12.08 23.36,12.08 L23.36,12.08 Z M10.4,6.64 C8.72,6.64 7.44,8 7.44,9.6 C7.44,9.92 7.12,10.24 6.8,10.24 C6.48,10.24 6.16,9.92 6.16,9.6 C6.16,7.28 8.08,5.36 10.4,5.36 C10.72,5.36 11.04,5.68 11.04,6 C11.04,6.32 10.72,6.64 10.4,6.64 L10.4,6.64 Z M11.84,2.4 C11.6,2.4 11.36,2.16 11.36,1.92 C11.36,1.68 11.6,1.44 11.84,1.44 C12.08,1.44 12.32,1.68 12.32,1.92 C12.32,2.16 12.08,2.4 11.84,2.4 L11.84,2.4 Z"/></symbol><symbol id="sercurity-services" viewBox="0 0 24 24"><path d="M12.5,0 C6.5,0 2,4.5 2,4.5 C2,15 6.5,22.5 12.5,24 C18.5,22.5 23,15 23,4.5 C23,4.5 18.5,0 12.5,0 Z M12.5,20.5695 L12.5,10.5 L5.633,10.5 C5.3045,9.0645 5.09675,7.52025 5.02625,5.859 C6.40925,4.79625 9.22475,3 12.5,3 L12.5,10.5 L19.367,10.5 C18.33575,14.988 16.133,19.40625 12.5,20.5695 Z"/></symbol><symbol id="service-providers" viewBox="0 0 24 24"><path d="M9.2549804,10.9017357 C8.97827287,10.9017357 8.54664053,11.0092315 8.1569412,11.1762455 L4.86282353,12.5916867 L4.86282353,19.1370298 L5.96086275,19.1370298 C8.06822727,19.1928758 11.7374044,21.8821279 14.4706667,21.8821279 C15.0209548,21.8821279 15.3492482,21.6576878 15.8432157,21.3331083 L22.6888039,16.8551671 C23.1676103,16.573873 23.5210367,15.9981705 23.5294902,15.5684023 C23.5294902,14.658757 22.7920767,13.9213435 21.8824314,13.9213435 C21.5227848,13.9213435 21.0987857,14.0858155 20.7843921,14.1958533 L13.8187059,16.9666867 L9.57238233,14.9679121 C9.35538427,14.8725274 9.21368807,14.6279257 9.24640193,14.3931573 C9.2791156,14.1583891 9.48340767,13.9537717 9.71821567,13.9213435 C9.82598193,13.9065529 9.93804807,13.9247255 10.0356177,13.9728141 L13.6299804,15.6627651 C14.1971292,15.2920138 13.8252993,13.9288053 13.3726275,13.6468337 C13.3726275,13.6468337 11.6255985,12.2845261 10.6275294,11.4507553 C10.3607157,11.2278635 9.91796467,10.9017357 9.2549804,10.9017357 Z M0.470666667,11.4507553 L0.470666667,20.7840886 L3.76478431,20.7840886 L3.76478431,11.4507553 L0.470666667,11.4507553 Z"/><path d="M15.8404018,2 L15.5524553,3.23214286 C15.3081814,3.30275 15.0743411,3.39955357 14.8560268,3.52008929 L13.7845982,2.85379464 L12.8537946,3.78459822 L13.5200893,4.859375 C13.4002232,5.07693928 13.3024682,5.30915537 13.2321429,5.55245537 L12,5.84040179 L12,7.15959823 L13.2321429,7.44754465 C13.3024682,7.69084465 13.4002232,7.92306071 13.5200893,8.14062499 L12.8537946,9.21540181 L13.7845982,10.1495536 L14.859375,9.47991073 C15.0769329,9.59977142 15.3091575,9.69752859 15.5524553,9.76785715 L15.8404018,11 L17.1595982,11 L17.4475447,9.76785715 C17.6898664,9.69781786 17.9204754,9.59910715 18.1372768,9.47991073 L19.2154018,10.1495536 L20.1495536,9.21540181 L19.4799107,8.13727679 C19.5991114,7.92047322 19.6978146,7.68988036 19.7678571,7.44754465 L21,7.15959823 L21,5.84040179 L19.7645089,5.54910714 C19.6947332,5.3088393 19.6014011,5.07785535 19.4832589,4.86272322 L20.1495536,3.78459822 L19.2154018,2.85379464 L18.140625,3.52008929 C17.9230682,3.40022857 17.6908414,3.30246072 17.4475447,3.23214286 L17.1595982,2 L15.8404018,2 Z M16.5,4.67857143 C17.5059472,4.67857143 18.3214286,5.49405274 18.3214286,6.50000001 C18.3214286,7.50594724 17.5059472,8.32142858 16.5,8.32142858 C15.4940528,8.32142858 14.6785714,7.50594724 14.6785714,6.50000001 C14.6785714,5.49405274 15.4940528,4.67857143 16.5,4.67857143 Z"/></symbol><symbol id="shopping-retail" viewBox="0 0 24 24"><path d="M0.745019608,1.23542196 C0.429242416,1.23542196 0.196,1.52563125 0.196,1.78444157 C0.196,2.04325188 0.457201321,2.33346117 0.745019608,2.33346117 L3.49011765,2.33346117 C3.93454847,2.33346117 4.12822859,2.44922745 4.21070588,2.74522588 L4.44232353,3.98052 L5.55751961,3.98052 L5.28300981,2.49645137 C5.27789569,2.48192157 5.27216941,2.46760753 5.26585294,2.45355921 C5.04519784,1.66166431 4.26433686,1.23542196 3.49011765,1.23542196 L0.745019608,1.23542196 Z M4.63962745,5.07855921 L5.30016667,8.64718667 L10.6273725,8.64718667 L10.6273725,5.07855921 L5.76340196,5.07855921 L4.63962745,5.07855921 Z M11.7254117,5.07855921 L11.7254117,8.64718667 L16.6665883,8.64718667 L16.6665883,5.07855921 L11.7254117,5.07855921 Z M17.7646275,5.07855921 L17.7646275,8.64718667 L22.9717353,8.64718667 L23.8038431,5.07855921 L17.7646275,5.07855921 Z M5.50604902,9.74522587 L6.16658823,13.3138533 L10.6273725,13.3138533 L10.6273725,9.74522587 L5.50604902,9.74522587 Z M11.7254117,9.74522587 L11.7254117,13.3138533 L16.6665883,13.3138533 L16.6665883,9.74522587 L11.7254117,9.74522587 Z M17.7646275,9.74522587 L17.7646275,13.3138533 L19.9607059,13.3138533 C21.2468724,13.3138533 21.8879859,13.0884533 22.2597255,11.7011083 L22.7143823,9.74522587 L17.7646275,9.74522587 Z M6.37247059,14.4118925 L6.79281373,16.7023337 C6.83678553,16.9542382 7.07754133,17.1567789 7.33325493,17.1569906 L21.0587451,17.1569906 C21.348799,17.1610917 21.6163431,16.898054 21.6163431,16.607971 C21.6163431,16.3178879 21.348799,16.0548494 21.0587451,16.0589514 L7.78791173,16.0589514 L7.48766667,14.4118925 L6.37247059,14.4118925 Z M10.0783529,18.8040494 C9.1687076,18.8040494 8.43129413,19.5414629 8.43129413,20.4511083 C8.43129413,21.3607536 9.1687076,22.0981671 10.0783529,22.0981671 C10.9879983,22.0981671 11.7254117,21.3607536 11.7254117,20.4511083 C11.7254117,19.5414629 10.9879983,18.8040494 10.0783529,18.8040494 Z M18.8626667,18.8040494 C17.9530213,18.8040494 17.2156079,19.5414629 17.2156079,20.4511083 C17.2156079,21.3607536 17.9530213,22.0981671 18.8626667,22.0981671 C19.772312,22.0981671 20.5097255,21.3607536 20.5097255,20.4511083 C20.5097255,19.5414629 19.772312,18.8040494 18.8626667,18.8040494 Z"/></symbol><symbol id="sports" viewBox="0 0 24 24"><path d="M19.84,21.28 C18.48,21.28 17.36,20.32 17.04,19.04 C16.88,18.32 17.04,17.52 17.44,16.88 C17.84,16.24 18.48,15.84 19.28,15.68 C20.8,15.36 22.32,16.4 22.64,17.92 C22.8,18.64 22.64,19.44 22.24,20.08 C21.84,20.72 21.2,21.12 20.4,21.28 L19.84,21.28 L19.84,21.28 Z"/><path d="M19.12,6.88 C18.32,2.88 14.8,0 10.72,0 C10.16,0 9.6,0.08 9.04,0.16 C6.8,0.64 4.88,1.92 3.6,3.84 C2.32,5.76 1.84,8 2.32,10.24 C3.04,13.92 6.08,16.64 9.68,17.04 L10.64,22 C10.8,22.64 11.12,23.2 11.68,23.52 C12.08,23.76 12.56,23.92 13.04,23.92 C13.2,23.92 13.36,23.92 13.52,23.84 L14.08,23.76 C14.72,23.6 15.28,23.28 15.6,22.72 C16,22.16 16.08,21.52 16,20.88 L14.96,16 C16.08,15.36 17.12,14.48 17.84,13.28 C19.12,11.44 19.6,9.12 19.12,6.88 L19.12,6.88 Z M14.96,10.56 C14.96,10.72 14.88,10.8 14.8,10.96 C14.72,11.04 14.56,11.12 14.4,11.12 C14.24,11.12 14.16,11.04 14,10.96 C13.92,10.88 13.84,10.72 13.84,10.56 C13.84,10.4 13.92,10.32 14,10.16 C14.24,9.92 14.56,9.92 14.8,10.16 C14.88,10.32 14.96,10.48 14.96,10.56 L14.96,10.56 Z M14.56,8.48 C14.56,8.64 14.48,8.8 14.4,8.88 C14.32,8.96 14.16,9.04 14,9.04 C13.84,9.04 13.76,8.96 13.6,8.88 C13.52,8.8 13.44,8.64 13.44,8.48 C13.44,8.32 13.52,8.16 13.6,8.08 C13.84,7.84 14.16,7.84 14.4,8.08 C14.48,8.16 14.56,8.32 14.56,8.48 L14.56,8.48 Z M14.16,6.32 C14.16,6.48 14.08,6.64 14,6.72 C13.92,6.8 13.76,6.88 13.6,6.88 C13.44,6.88 13.28,6.8 13.2,6.72 C13.12,6.64 13.04,6.48 13.04,6.32 C13.04,6.16 13.12,6 13.2,5.92 C13.44,5.68 13.76,5.68 13.92,5.92 C14.08,6.08 14.16,6.24 14.16,6.32 L14.16,6.32 Z M12.8,3.84 C13.04,3.6 13.36,3.6 13.6,3.84 C13.68,3.92 13.76,4.08 13.76,4.24 C13.76,4.4 13.68,4.48 13.6,4.64 C13.44,4.72 13.28,4.8 13.2,4.8 C13.04,4.8 12.88,4.72 12.8,4.64 C12.72,4.56 12.64,4.4 12.64,4.24 C12.64,4.08 12.72,4 12.8,3.84 L12.8,3.84 Z M12.88,11.04 C12.88,11.2 12.8,11.36 12.72,11.44 C12.64,11.52 12.48,11.6 12.32,11.6 C12.16,11.6 12.08,11.52 11.92,11.44 C11.84,11.36 11.76,11.2 11.76,11.04 C11.76,10.88 11.84,10.8 11.92,10.64 C12.08,10.4 12.48,10.4 12.72,10.64 C12.8,10.72 12.88,10.88 12.88,11.04 L12.88,11.04 Z M12.4,8.88 C12.4,9.04 12.32,9.2 12.24,9.28 C12.16,9.36 12,9.44 11.84,9.44 C11.68,9.44 11.6,9.36 11.44,9.28 C11.36,9.2 11.28,9.04 11.28,8.88 C11.28,8.72 11.36,8.56 11.44,8.48 C11.68,8.24 12,8.24 12.24,8.48 C12.4,8.64 12.4,8.72 12.4,8.88 L12.4,8.88 Z M12,6.8 C12,6.96 11.92,7.12 11.84,7.2 C11.76,7.28 11.6,7.36 11.44,7.36 C11.28,7.36 11.2,7.28 11.04,7.2 C10.96,7.12 10.88,6.96 10.88,6.8 C10.88,6.64 10.96,6.56 11.04,6.4 C11.28,6.16 11.6,6.16 11.84,6.4 C11.92,6.48 12,6.64 12,6.8 L12,6.8 Z M10.64,4.32 C10.88,4.08 11.2,4.08 11.36,4.32 C11.52,4.4 11.6,4.56 11.6,4.64 C11.6,4.8 11.52,4.96 11.44,5.04 C11.36,5.12 11.2,5.2 11.04,5.2 C10.88,5.2 10.72,5.12 10.64,5.04 C10.56,4.96 10.48,4.8 10.48,4.64 C10.48,4.56 10.56,4.4 10.64,4.32 L10.64,4.32 Z M10.72,11.44 C10.72,11.6 10.64,11.76 10.56,11.84 C10.48,11.92 10.32,12 10.16,12 C10,12 9.84,11.92 9.76,11.84 C9.68,11.76 9.6,11.6 9.6,11.44 C9.6,11.28 9.68,11.12 9.76,11.04 C9.92,10.88 10.32,10.8 10.48,11.04 C10.64,11.12 10.72,11.28 10.72,11.44 L10.72,11.44 Z M10.32,9.28 C10.32,9.44 10.24,9.52 10.16,9.68 C10.08,9.76 9.92,9.84 9.76,9.84 C9.6,9.84 9.44,9.76 9.36,9.68 C9.28,9.6 9.2,9.44 9.2,9.28 C9.2,9.12 9.28,8.96 9.36,8.88 C9.52,8.72 9.92,8.64 10.08,8.88 C10.24,9.04 10.32,9.2 10.32,9.28 L10.32,9.28 Z M9.92,7.2 C9.92,7.36 9.84,7.44 9.76,7.6 C9.68,7.68 9.52,7.76 9.36,7.76 C9.2,7.76 9.04,7.68 8.96,7.6 C8.88,7.52 8.8,7.36 8.8,7.2 C8.8,7.04 8.88,6.88 8.96,6.8 C9.2,6.56 9.52,6.56 9.76,6.8 C9.84,6.88 9.92,7.04 9.92,7.2 L9.92,7.2 Z M8.56,4.72 C8.8,4.48 9.12,4.48 9.36,4.72 C9.44,4.8 9.52,4.96 9.52,5.12 C9.52,5.28 9.44,5.36 9.36,5.52 C9.2,5.6 9.04,5.6 8.96,5.6 C8.8,5.6 8.72,5.52 8.56,5.44 C8.48,5.36 8.4,5.2 8.4,5.12 C8.4,4.96 8.48,4.8 8.56,4.72 L8.56,4.72 Z M8.64,11.84 C8.64,12 8.56,12.16 8.48,12.24 C8.4,12.32 8.24,12.4 8.08,12.4 C7.92,12.4 7.76,12.32 7.68,12.24 C7.6,12.16 7.52,12 7.52,11.84 C7.52,11.68 7.6,11.6 7.68,11.44 C7.92,11.2 8.24,11.2 8.48,11.44 C8.56,11.6 8.64,11.68 8.64,11.84 L8.64,11.84 Z M6.32,5.52 C6.32,5.36 6.4,5.28 6.48,5.12 C6.64,4.96 7.04,4.96 7.2,5.12 C7.28,5.2 7.36,5.36 7.36,5.52 C7.36,5.68 7.28,5.76 7.2,5.92 C7.12,6 6.96,6.08 6.8,6.08 C6.64,6.08 6.56,6 6.48,5.92 C6.32,5.76 6.32,5.68 6.32,5.52 L6.32,5.52 Z M6.72,7.6 C6.72,7.44 6.8,7.28 6.88,7.2 C7.12,6.96 7.44,6.96 7.68,7.2 C7.76,7.28 7.84,7.44 7.84,7.6 C7.84,7.76 7.76,7.84 7.68,8 C7.6,8.08 7.44,8.16 7.28,8.16 C7.12,8.16 6.96,8.08 6.88,8 C6.72,7.92 6.72,7.76 6.72,7.6 L6.72,7.6 Z M7.12,9.76 C7.12,9.6 7.2,9.52 7.28,9.36 C7.44,9.12 7.84,9.12 8.08,9.36 C8.16,9.44 8.24,9.6 8.24,9.76 C8.24,9.92 8.16,10.08 8.08,10.16 C8,10.24 7.84,10.32 7.68,10.32 C7.52,10.32 7.44,10.24 7.28,10.16 C7.2,10 7.12,9.84 7.12,9.76 L7.12,9.76 Z M14.64,22.24 C14.48,22.56 14.16,22.72 13.76,22.8 L13.2,22.88 C12.88,22.96 12.48,22.88 12.16,22.64 C11.84,22.48 11.68,22.16 11.6,21.76 L10.8,17.12 C11.36,17.12 11.92,17.04 12.4,16.96 C12.96,16.88 13.44,16.72 13.92,16.48 L14.88,21.2 C14.96,21.6 14.88,21.92 14.64,22.24 L14.64,22.24 Z M12.16,15.92 C11.68,16 11.2,16.08 10.72,16.08 C9.52,16.08 8.4,15.76 7.44,15.28 L16.4,13.52 C15.28,14.72 13.84,15.6 12.16,15.92 L12.16,15.92 Z"/></symbol><symbol id="ticketing-event" viewBox="0 0 24 24"><path d="M23.572107,12.4899465 L21.0363851,7.92609628 C20.916,7.71003212 20.6419893,7.63142245 20.4259252,7.75180751 C20.2341176,7.85826741 20.0180535,7.91441711 19.8001925,7.91441711 C19.3739037,7.91441711 18.9857968,7.69700534 18.7454759,7.35157221 L19.3905241,6.91585027 C19.5032728,6.83993583 19.5751444,6.71685561 19.5868235,6.58164706 C19.5985027,6.44643851 19.5481925,6.31302674 19.4498182,6.21914439 C18.9354866,5.72682353 18.9175187,4.90793583 19.4093904,4.39360428 C19.4920428,4.30735829 19.5365134,4.19236364 19.5338182,4.0733262 C19.531123,3.95428877 19.481262,3.84109091 19.395016,3.75843851 L15.6226524,0.149582888 C15.4434224,-0.0211122995 15.1595294,-0.0157219249 14.9874866,0.163508022 C14.5113369,0.660770054 13.6605561,0.68053476 13.1623957,0.203486631 C12.9827166,0.031893048 12.6983743,0.0381818181 12.52723,0.217411765 L9.51985024,3.36134759 C9.29570054,3.59537968 9.16812833,3.89589305 9.15510162,4.21662032 C8.83841711,4.24447059 8.53790372,4.38776471 8.31689838,4.61865241 L0.496812834,12.7922567 C0.414609625,12.8780535 0.36968984,12.9934973 0.372385027,13.112984 C0.375080214,13.2320214 0.424941176,13.3452193 0.510737968,13.4274224 C0.760042781,13.6654973 0.901540107,13.9866738 0.908727272,14.3316577 C0.916363636,14.6766417 0.789240642,15.0032086 0.551165776,15.2525134 C0.466716577,15.3410053 0.421347594,15.460492 0.427187166,15.583123 C0.43257754,15.7053048 0.487828877,15.8202995 0.580363636,15.9011551 L2.52359358,17.599123 C2.42611765,17.7141176 2.3097754,17.8156364 2.17052406,17.8933476 C1.9540107,18.0141818 1.87585027,18.2872941 1.99623529,18.5038075 L4.53150802,23.0676577 C4.65189305,23.2841711 4.92545454,23.3636792 5.14196792,23.2423957 C5.3337754,23.1359358 5.55028877,23.0797861 5.76770053,23.0797861 C6.2371123,23.0797861 6.67013904,23.3340321 6.89788235,23.7441498 C6.98008556,23.8919358 7.13281283,23.9754866 7.29093048,23.9754866 C7.36459893,23.9754866 7.43961494,23.9575187 7.50879141,23.9188877 L17.396984,18.4256471 C17.6876149,18.2643851 17.8937968,18.007893 17.9980107,17.7163636 C18.0891978,17.7361283 18.1830802,17.7464599 18.2783101,17.7464599 C18.5015615,17.7464599 18.7225669,17.6889625 18.9184171,17.5802567 L22.7217754,15.46723 C22.8259893,15.4092834 22.9028022,15.3122567 22.9360428,15.1977112 C22.9683851,15.0831658 22.9544599,14.9605348 22.8965134,14.8558717 C22.7289625,14.5544599 22.688984,14.2063316 22.7837647,13.8743743 C22.8785454,13.5433155 23.0964064,13.2679572 23.3978182,13.1004064 C23.6143316,12.9800214 23.692492,12.7064599 23.572107,12.4899465 L23.572107,12.4899465 Z M14.1636577,4.19146524 C14.4956149,3.84423529 15.04723,3.83210695 15.3940107,4.16406417 C15.7403423,4.49647059 15.753369,5.04673796 15.4214118,5.39396792 C15.0894546,5.74119786 14.5378396,5.7533262 14.191508,5.42136899 C13.8438289,5.08986096 13.8317005,4.53869519 14.1636577,4.19146524 L14.1636577,4.19146524 Z M12.6902888,7.59908019 C12.8618824,7.41985024 13.147123,7.41445991 13.3254546,7.58515511 L13.9538824,8.18663104 C14.1331123,8.35822461 14.1394011,8.64256687 13.9678075,8.82179682 C13.8797647,8.91388235 13.7611765,8.96059892 13.6430375,8.96059892 C13.5311872,8.96059892 13.4193369,8.91927275 13.3326417,8.83617113 L12.7042139,8.2346952 C12.524984,8.06220318 12.5186952,7.77831014 12.6902888,7.59908019 L12.6902888,7.59908019 Z M10.804107,5.79465241 C10.9757005,5.61587166 11.2600428,5.60913369 11.4392728,5.78072728 L12.0677005,6.38220321 C12.2469305,6.55379679 12.2532193,6.83813904 12.0816257,7.01736896 C11.9931337,7.10945456 11.8754439,7.15617113 11.7568556,7.15617113 C11.6450053,7.15617113 11.5331551,7.11484489 11.4464599,7.03174334 L10.8184813,6.42981818 C10.6392513,6.2582246 10.6329625,5.97343316 10.804107,5.79465241 L10.804107,5.79465241 Z M9.98027809,9.37341176 C10.1604064,9.37341176 10.323016,9.48121927 10.3930909,9.64697329 C10.4636149,9.81272725 10.4281283,10.004984 10.3032513,10.1343529 C10.2673155,10.1716364 8.19471656,12.3385669 8.19471656,12.3385669 C8.10667376,12.4306524 7.98853475,12.477369 7.86994652,12.477369 C7.75809628,12.477369 7.64624598,12.4360428 7.55955078,12.3529412 C7.38032082,12.1813476 7.37403208,11.8970053 7.54562569,11.7177754 C9.78847059,9.37341176 9.78847059,9.37341176 9.98027809,9.37341176 L9.98027809,9.37341176 Z M3.58594652,13.3389305 L8.39820318,8.309262 C8.56979682,8.13048127 8.85413901,8.12419249 9.03336896,8.29533692 C9.21259892,8.46693049 9.21888769,8.75127275 9.04729412,8.93050271 L4.23503743,13.9601711 C4.14654546,14.0522567 4.02885561,14.0989733 3.91026738,14.0989733 C3.79841711,14.0989733 3.68656684,14.0576471 3.59987166,13.9745454 C3.42064171,13.8029519 3.41435294,13.5186096 3.58594652,13.3389305 L3.58594652,13.3389305 Z M5.85394652,17.805754 C5.69582888,17.805754 5.5431016,17.7222032 5.4608984,17.5744171 C5.34006417,17.3579037 5.4186738,17.0843423 5.63518717,16.9639572 L11.7200214,13.5832941 C11.936984,13.4615615 12.2105454,13.5406204 12.3309305,13.7580321 C12.4513155,13.9745454 12.3731551,14.248107 12.1566417,14.368492 L6.07180748,17.7491551 C6.00263101,17.7877861 5.92761498,17.805754 5.85394652,17.805754 L5.85394652,17.805754 Z M6.91719786,19.270139 C6.84802139,19.30877 6.77300535,19.326738 6.6993369,19.326738 C6.54121925,19.326738 6.38849198,19.2431872 6.30628877,19.0954011 C6.18545454,18.8788877 6.26406417,18.6053262 6.48057754,18.4849412 L12.565861,15.1042781 C12.7823743,14.9825454 13.0559358,15.0616043 13.1763208,15.279016 C13.2971551,15.4955294 13.2189947,15.7690909 13.0015829,15.8894759 L6.91719786,19.270139 L6.91719786,19.270139 Z M13.8469733,17.4109091 L7.76213901,20.791123 C7.69296254,20.829754 7.61794652,20.8477219 7.54427809,20.8477219 C7.38616045,20.8477219 7.23343316,20.7641711 7.15122995,20.6163851 C7.03039572,20.3998717 7.10900535,20.125861 7.32551872,20.0059252 L13.4108022,16.6257112 C13.6273155,16.5044278 13.9013262,16.5834866 14.021262,16.8004492 C14.1425454,17.0169625 14.0643851,17.2905241 13.8469733,17.4109091 L13.8469733,17.4109091 Z M15.6222032,13.4386524 C15.5530267,13.4772834 15.4780107,13.4952513 15.4043423,13.4952513 C15.2462246,13.4952513 15.0934973,13.4117005 15.0112941,13.2643636 L14.5885989,12.5038717 C14.4677647,12.2869091 14.5459252,12.0133476 14.7628877,11.8929625 C14.9807487,11.7721283 15.253861,11.850738 15.3737968,12.0672513 L15.796492,12.8277433 C15.9173262,13.0447059 15.8391658,13.3182674 15.6222032,13.4386524 L15.6222032,13.4386524 Z M16.8898396,15.7201283 C16.8211123,15.7587594 16.7460963,15.7767272 16.6724278,15.7767272 C16.5143101,15.7767272 16.3615829,15.6931765 16.2793796,15.5453904 L15.8571337,14.7848984 C15.7362995,14.5683851 15.8144599,14.2943743 16.0318717,14.1744385 C16.2483851,14.0531551 16.5223957,14.1322139 16.6423316,14.3491765 L17.0645776,15.1096684 C17.1849625,15.3261818 17.1068022,15.6001925 16.8898396,15.7201283 L16.8898396,15.7201283 Z M19.2912513,12.8767059 C18.8708022,13.1102888 18.3416471,12.9589091 18.1080642,12.5389091 C17.8744813,12.1184599 18.025861,11.5888556 18.4463101,11.3557219 C18.8663101,11.122139 19.3959145,11.2735187 19.6294973,11.6935187 C19.8630802,12.1135187 19.7117005,12.6435722 19.2912513,12.8767059 L19.2912513,12.8767059 Z"/></symbol><symbol id="trades" viewBox="0 0 24 24"><path d="M16.9208342,13.7450053 L14.540984,11.3651551 L19.994246,5.91234224 L21.0786096,5.91234224 C21.1980963,5.91234224 21.3121925,5.86517647 21.3961925,5.78072728 L23.302139,3.87478075 C23.3865882,3.79033155 23.433754,3.67623529 23.433754,3.55719786 C23.433754,3.43816043 23.3865882,3.32361498 23.302139,3.23961498 L20.7610267,0.698502674 C20.5853904,0.52286631 20.3014973,0.52286631 20.125861,0.698502674 L18.2199145,2.604 C18.1354652,2.6884492 18.0882995,2.80254546 18.0882995,2.92158289 L18.0882995,4.00594652 L12.6354866,9.45920859 C12.0367059,8.85997864 10.7515508,7.57482353 10.2560855,7.07935829 C10.8261176,5.32029947 10.3683851,3.37976471 9.05043847,2.06271658 C7.79268452,0.804513369 5.9433369,0.320727273 4.22425669,0.80002139 C4.07063101,0.843144385 3.95114439,0.964427807 3.91071658,1.11850267 C3.87028877,1.27257754 3.91475936,1.43743316 4.02750802,1.55063101 L5.71334759,3.23647059 L5.19003208,5.18958289 L3.23602139,5.71334759 L1.55063101,4.02795722 C1.43788235,3.91475936 1.27347594,3.87028877 1.11940107,3.91116577 C0.964877005,3.95159358 0.843593583,4.07108022 0.800919786,4.22515508 C0.321176471,5.9433369 0.804962567,7.79223529 2.06271658,9.05088769 C3.3802139,10.3683851 5.32074866,10.8256684 7.07935829,10.2560855 L9.45875936,12.6359358 L8.86896254,13.2257326 C8.51095186,13.0545882 8.11745456,12.9611551 7.70868452,12.9611551 C6.98862032,12.9611551 6.31212834,13.2414546 5.80318717,13.7508449 L1.35567914,18.1970053 C0.305454545,19.2481283 0.305454545,20.9577754 1.35567914,22.0088984 L1.99129412,22.6440642 C2.50023529,23.1534546 3.17717647,23.433754 3.89724064,23.433754 C4.61730481,23.433754 5.29379679,23.1534546 5.80273796,22.6440642 L10.2493476,18.1970053 C10.758738,17.6885134 11.0390375,17.0115722 11.0390375,16.2919572 C11.0390375,15.8831872 10.9456043,15.4896899 10.7744599,15.1316792 L11.3642567,14.5418824 L13.744107,16.9217326 C13.1740748,18.6807914 13.6322567,20.620877 14.949754,21.9383743 C15.8867807,22.8754011 17.1508235,23.3829947 18.4454118,23.3829947 C18.8892193,23.3829947 19.3370695,23.3232513 19.7759358,23.2006204 C19.9300107,23.1574973 20.0490481,23.0366631 20.0894759,22.882139 C20.1303529,22.7276149 20.0854331,22.5632086 19.9726845,22.4504599 L18.2868449,20.7646204 L18.8101604,18.8110588 L20.7637219,18.2877433 L22.4495615,19.9735829 C22.5623101,20.0867807 22.7267166,20.1317005 22.8812406,20.0903743 C23.0357647,20.0499465 23.1570481,19.9309091 23.1997219,19.7768342 C23.679016,18.0586524 23.19523,16.2093048 21.9370267,14.9511016 C20.6199786,13.6327059 18.6789947,13.1745241 16.9208342,13.7450053 L16.9208342,13.7450053 Z M2.62690909,20.5525989 C2.51191444,20.5525989 2.39691978,20.5085776 2.3093262,20.420984 C2.13368984,20.2453476 2.13368984,19.9614546 2.3093262,19.7858182 L7.39110162,14.7035936 C7.566738,14.5279572 7.85063104,14.5279572 8.02626741,14.7035936 C8.20190372,14.87923 8.20190372,15.163123 8.02626741,15.3387594 L2.94449198,20.420984 C2.8568984,20.5085776 2.74190375,20.5525989 2.62690909,20.5525989 L2.62690909,20.5525989 Z M9.29659892,16.6090909 L4.21482353,21.6913155 C4.12722995,21.7789091 4.01223529,21.8229305 3.89724064,21.8229305 C3.78224599,21.8229305 3.66725134,21.7789091 3.57965776,21.6913155 C3.40402139,21.5156792 3.40402139,21.2317861 3.57965776,21.0561498 L8.66143313,15.9739252 C8.83706951,15.7982888 9.12096254,15.7982888 9.29659892,15.9739252 C9.47223529,16.1495615 9.47223529,16.4334546 9.29659892,16.6090909 L9.29659892,16.6090909 Z"/></symbol><symbol id="travel-tours" viewBox="0 0 24 24"><path d="M9.72446996,1.71307049 L11.9205484,8.5758156 L9.17545036,8.5758156 L7.25388171,6.10522736 L4.78329347,6.10522736 L6.15584249,10.4973842 L4.78329347,14.8895411 L7.25388171,14.8895411 L9.17545036,12.4189529 L11.9205484,12.4189529 L9.72446996,19.2816979 L12.1950582,19.2816979 L16.3127052,12.4189529 L22.3519209,12.4189529 C24.2006857,12.4189529 25.097019,11.727545 25.097019,10.4973842 C25.097019,9.22312893 23.8348009,8.5758156 22.3519209,8.5758156 L16.3127052,8.5758156 L12.1950582,1.71307049 L9.72446996,1.71307049 Z M2.86172485,2.8111097 C2.86172485,3.06992002 3.12292614,3.36012932 3.41074445,3.36012932 L9.09824443,3.36012932 L8.74652876,2.2620901 L3.41074445,2.2620901 C3.09496677,2.2620901 2.86172485,2.55229939 2.86172485,2.8111097 Z M1.48917583,7.20326657 C1.48917583,7.46207688 1.75037715,7.75228618 2.03819543,7.75228618 L4.14848955,7.75228618 L3.8053523,6.65424696 L2.03819543,6.65424696 C1.72242,6.65424696 1.48917583,6.94445626 1.48917583,7.20326657 Z M1.48917583,13.7915019 C1.48917583,14.0503122 1.75037715,14.3405215 2.03819543,14.3405215 L3.8053523,14.3405215 L4.14848955,13.2424823 L2.03819543,13.2424823 C1.72241824,13.2424823 1.48917583,13.5326915 1.48917583,13.7915019 Z M2.86172485,18.1836587 C2.86172485,18.4424691 3.12292614,18.7326783 3.41074445,18.7326783 L8.74652876,18.7326783 L9.09824443,17.6346391 L3.41074445,17.6346391 C3.09496677,17.6346391 2.86172485,17.9248484 2.86172485,18.1836587 Z" transform="rotate(-45 13.293 10.497)"/></symbol><symbol id="tv-telecom-internet-services" viewBox="0 0 24 24"><path d="M5.92654902,1.22684353 C5.70341017,1.23820549 5.50940818,1.38364423 5.43593443,1.59464576 C5.36246069,1.80564729 5.42416927,2.0401281 5.59199019,2.18762784 L10.8848823,7.00012784 L13.1152745,7.00012784 L18.4081667,2.18762784 C18.5537437,2.05584237 18.6179556,1.85640319 18.5766145,1.6644371 C18.5352735,1.47247101 18.39466,1.31714223 18.207742,1.25696161 C18.0208239,1.19678099 17.8159985,1.24089139 17.6704216,1.37267686 L12.0000784,6.52831412 L6.32973529,1.37267686 C6.22065707,1.27143425 6.07515427,1.21880557 5.92654902,1.22684353 L5.92654902,1.22684353 Z M1.56870588,8.09816707 C0.960392569,8.09816707 0.470666667,8.5878928 0.470666667,9.19620627 L0.470666667,21.0001279 C0.470666667,21.6084413 0.960392569,22.0981671 1.56870588,22.0981671 L22.431451,22.0981671 C23.0397644,22.0981671 23.5294902,21.6084413 23.5294902,21.0001279 L23.5294902,9.19620627 C23.5294902,8.5878928 23.0397644,8.09816707 22.431451,8.09816707 L1.56870588,8.09816707 Z M2.6667451,10.2942455 L16.3922353,10.2942455 L16.3922353,19.9020886 L2.6667451,19.9020886 L2.6667451,10.2942455 Z M19.9608627,10.2942455 C20.7189007,10.2942455 21.3334117,10.9087577 21.3334117,11.6667945 C21.3334117,12.4248314 20.7189007,13.0393435 19.9608627,13.0393435 C19.2028248,13.0393435 18.5883137,12.4248314 18.5883137,11.6667945 C18.5883137,10.9087577 19.2028248,10.2942455 19.9608627,10.2942455 Z M19.9608627,15.2354219 C20.7189007,15.2354219 21.3334117,15.8499396 21.3334117,16.607971 C21.3334117,17.3660023 20.7189007,17.98052 19.9608627,17.98052 C19.2028248,17.98052 18.5883137,17.3660023 18.5883137,16.607971 C18.5883137,15.8499396 19.2028248,15.2354219 19.9608627,15.2354219 Z"/></symbol><symbol id="vehicles" viewBox="0 0 24 24"><path d="M21.1230769,2.375 C20.856358,1.55 20.0564103,1 19.2564103,1 L4.58974359,1 C3.65641026,1 2.98974359,1.55 2.72307692,2.375 L-0.0769230769,10.625 L-0.0769230769,21.625 C-0.0769230769,22.45 0.456410256,23 1.25641026,23 L2.58974359,23 C3.38974359,23 3.92307692,22.45 3.92307692,21.625 L3.92307692,20.25 L19.9230769,20.25 L19.9230769,21.625 C19.9230769,22.45 20.4564103,23 21.2564103,23 L22.5897436,23 C23.3897436,23 23.9230769,22.45 23.9230769,21.625 L23.9230769,10.625 L21.1230769,2.375 L21.1230769,2.375 Z M4.58974359,16.125 C3.52307692,16.125 2.58974359,15.1625 2.58974359,14.0625 C2.58974359,12.9625 3.52307692,12 4.58974359,12 C5.65641026,12 6.58974359,12.9625 6.58974359,14.0625 C6.58974359,15.1625 5.65641026,16.125 4.58974359,16.125 L4.58974359,16.125 Z M19.2564103,16.125 C18.1897436,16.125 17.2564103,15.1625 17.2564103,14.0625 C17.2564103,12.9625 18.1897436,12 19.2564103,12 C20.3230769,12 21.2564103,12.9625 21.2564103,14.0625 C21.2564103,15.1625 20.3230769,16.125 19.2564103,16.125 L19.2564103,16.125 Z M2.58974359,9.24999999 L4.58974359,3.0625 L19.2564103,3.0625 L21.2564103,9.24999999 L2.58974359,9.24999999 L2.58974359,9.24999999 Z"/></symbol><symbol id="wellness" viewBox="0 0 24 24"><path d="M1.5,8 L3,8 L3,17 L1.5,17 C0.67125,17 0,16.32875 0,15.5 L0,9.5 C0,8.67125 0.67125,8 1.5,8 Z M18,5 L16.5,5 L16.5,11 L7.5,11 L7.5,5 L6,5 C5.17125,5 4.5,5.67125 4.5,6.5 L4.5,18.5 C4.5,19.32875 5.17125,20 6,20 L7.5,20 L7.5,14 L16.5,14 L16.5,20 L18,20 C18.82875,20 19.5,19.32875 19.5,18.5 L19.5,6.5 C19.5,5.67125 18.82875,5 18,5 Z M22.5,8 L21,8 L21,17 L22.5,17 C23.32875,17 24,16.32875 24,15.5 L24,9.5 C24,8.67125 23.32875,8 22.5,8 Z"/></symbol></svg>