<?xml version="1.0" encoding="UTF-8"?><!DOCTYPE svg PUBLIC "-//W3C//DTD SVG 1.1//EN" "http://www.w3.org/Graphics/SVG/1.1/DTD/svg11.dtd"><svg xmlns="http://www.w3.org/2000/svg" xmlns:xlink="http://www.w3.org/1999/xlink"><symbol id="accommodation-travel" viewBox="0 0 24 24"><path d="M5.8,22.05 L5.8,22.425 C5.8,23.1 6.475,23.25 6.7,23.25 L18.1,23.25 L18.1,23.25 L18.1,23.25 C18.475,23.25 18.775,22.725 18.775,22.35 C18.775,22.2 18.7,21.825 18.7,21.75 C18.025,19.725 15.025,18.45 12.85,18.3 L12.85,18.15 L12.85,9.15 L12.85,9.075 L18.1,9.075 C17.65,6.225 13.375,3.75 12.25,3.15 C11.125,3.75 6.85,6.15 6.4,9 L11.575,9 L11.575,9.075 L11.575,18.075 C11.575,18.15 11.575,18.225 11.65,18.225 C9.175,18.6 6.025,20.175 5.8,22.05 L5.8,22.05 Z"/><path d="M1.75,9 L5.05,9 C5.575,4.95 11.65,1.95 11.875,1.875 L11.95,1.875 L12.025,1.875 L12.175,1.875 L12.25,1.875 L12.4,1.875 L12.4,1.875 C12.7,2.025 18.85,5.025 19.225,9.075 L22.6,9.075 L22.6,9.075 C22.825,9.075 23.05,8.85 23.125,8.7 C23.275,8.475 23.2,8.175 23.125,7.95 C20.8,4.2 16.9,1.95 12.475,1.8 C12.55,1.65 12.625,1.5 12.625,1.35 C12.625,1.2 12.55,1.05 12.4,0.9 C12.175,0.675 11.725,0.675 11.5,0.9 C11.575,1.05 11.5,1.2 11.5,1.425 C11.5,1.575 11.575,1.725 11.65,1.875 C7.375,2.025 3.475,4.275 1.15,7.95 C1,8.175 1,8.4 1.15,8.625 C1.3,8.775 1.525,9 1.75,9 L1.75,9 Z"/></symbol><symbol id="account-check" viewBox="0 0 24 24"><path d="M21.1,12.5L22.5,13.91L15.97,20.5L12.5,17L13.9,15.59L15.97,17.67L21.1,12.5M10,17L13,20H3V18C3,15.79 6.58,14 11,14L12.89,14.11L10,17M11,4A4,4 0 0,1 15,8A4,4 0 0,1 11,12A4,4 0 0,1 7,8A4,4 0 0,1 11,4Z"/></symbol><symbol id="account-group" viewBox="0 0 24 24"><path d="M12,5.5A3.5,3.5 0 0,1 15.5,9A3.5,3.5 0 0,1 12,12.5A3.5,3.5 0 0,1 8.5,9A3.5,3.5 0 0,1 12,5.5M5,8C5.56,8 6.08,8.15 6.53,8.42C6.38,9.85 6.8,11.27 7.66,12.38C7.16,13.34 6.16,14 5,14A3,3 0 0,1 2,11A3,3 0 0,1 5,8M19,8A3,3 0 0,1 22,11A3,3 0 0,1 19,14C17.84,14 16.84,13.34 16.34,12.38C17.2,11.27 17.62,9.85 17.47,8.42C17.92,8.15 18.44,8 19,8M5.5,18.25C5.5,16.18 8.41,14.5 12,14.5C15.59,14.5 18.5,16.18 18.5,18.25V20H5.5V18.25M0,20V18.5C0,17.11 1.89,15.94 4.45,15.6C3.86,16.28 3.5,17.22 3.5,18.25V20H0M24,20H20.5V18.25C20.5,17.22 20.14,16.28 19.55,15.6C22.11,15.94 24,17.11 24,18.5V20Z"/></symbol><symbol id="account" viewBox="0 0 24 24"><path d="M12,4A4,4 0 0,1 16,8A4,4 0 0,1 12,12A4,4 0 0,1 8,8A4,4 0 0,1 12,4M12,14C16.42,14 20,15.79 20,18V20H4V18C4,15.79 7.58,14 12,14Z"/></symbol><symbol id="alert" viewBox="0 0 24 24"><path d="M13,14H11V10H13M13,18H11V16H13M1,21H23L12,2L1,21Z"/></symbol><symbol id="arrow-down" viewBox="0 0 24 24"><path d="M11,4H13V16L18.5,10.5L19.92,11.92L12,19.84L4.08,11.92L5.5,10.5L11,16V4Z"/></symbol><symbol id="arrow-left" viewBox="0 0 24 24"><path d="M20,11V13H8L13.5,18.5L12.08,19.92L4.16,12L12.08,4.08L13.5,5.5L8,11H20Z"/></symbol><symbol id="arrow-right" viewBox="0 0 24 24"><path d="M4,11V13H16L10.5,18.5L11.92,19.92L19.84,12L11.92,4.08L10.5,5.5L16,11H4Z"/></symbol><symbol id="arrow-up" viewBox="0 0 24 24"><path d="M13,20H11V8L5.5,13.5L4.08,12.08L12,4.16L19.92,12.08L18.5,13.5L13,8V20Z"/></symbol><symbol id="bell-off-outline" viewBox="0 0 24 24"><path d="M22.11,21.46L2.39,1.73L1.11,3L5.83,7.72C5.29,8.73 5,9.86 5,11V17L3,19V20H18.11L20.84,22.73L22.11,21.46M7,18V11C7,10.39 7.11,9.79 7.34,9.23L16.11,18H7M10,21H14A2,2 0 0,1 12,23A2,2 0 0,1 10,21M8.29,5.09C8.82,4.75 9.4,4.5 10,4.29C10,4.19 10,4.1 10,4A2,2 0 0,1 12,2A2,2 0 0,1 14,4C14,4.1 14,4.19 14,4.29C16.97,5.17 19,7.9 19,11V15.8L17,13.8V11A5,5 0 0,0 12,6C11.22,6 10.45,6.2 9.76,6.56L8.29,5.09Z"/></symbol><symbol id="bell-ring-outline" viewBox="0 0 24 24"><path d="M10,21H14A2,2 0 0,1 12,23A2,2 0 0,1 10,21M21,19V20H3V19L5,17V11C5,7.9 7.03,5.17 10,4.29C10,4.19 10,4.1 10,4A2,2 0 0,1 12,2A2,2 0 0,1 14,4C14,4.1 14,4.19 14,4.29C16.97,5.17 19,7.9 19,11V17L21,19M17,11A5,5 0 0,0 12,6A5,5 0 0,0 7,11V18H17V11M19.75,3.19L18.33,4.61C20.04,6.3 21,8.6 21,11H23C23,8.07 21.84,5.25 19.75,3.19M1,11H3C3,8.6 3.96,6.3 5.67,4.61L4.25,3.19C2.16,5.25 1,8.07 1,11Z"/></symbol><symbol id="bell" viewBox="0 0 24 24"><path d="M21,19V20H3V19L5,17V11C5,7.9 7.03,5.17 10,4.29C10,4.19 10,4.1 10,4A2,2 0 0,1 12,2A2,2 0 0,1 14,4C14,4.1 14,4.19 14,4.29C16.97,5.17 19,7.9 19,11V17L21,19M14,21A2,2 0 0,1 12,23A2,2 0 0,1 10,21"/></symbol><symbol id="block-helper" viewBox="0 0 24 24"><path d="M12,0A12,12 0 0,1 24,12A12,12 0 0,1 12,24A12,12 0 0,1 0,12A12,12 0 0,1 12,0M12,2A10,10 0 0,0 2,12C2,14.4 2.85,16.6 4.26,18.33L18.33,4.26C16.6,2.85 14.4,2 12,2M12,22A10,10 0 0,0 22,12C22,9.6 21.15,7.4 19.74,5.67L5.67,19.74C7.4,21.15 9.6,22 12,22Z"/></symbol><symbol id="book-open-page-variant" viewBox="0 0 24 24"><path d="M19,2L14,6.5V17.5L19,13V2M6.5,5C4.55,5 2.45,5.4 1,6.5V21.16C1,21.41 1.25,21.66 1.5,21.66C1.6,21.66 1.65,21.59 1.75,21.59C3.1,20.94 5.05,20.5 6.5,20.5C8.45,20.5 10.55,20.9 12,22C13.35,21.15 15.8,20.5 17.5,20.5C19.15,20.5 20.85,20.81 22.25,21.56C22.35,21.61 22.4,21.59 22.5,21.59C22.75,21.59 23,21.34 23,21.09V6.5C22.4,6.05 21.75,5.75 21,5.5V7.5L21,13V19C19.9,18.65 18.7,18.5 17.5,18.5C15.8,18.5 13.35,19.15 12,20V13L12,8.5V6.5C10.55,5.4 8.45,5 6.5,5V5Z"/></symbol><symbol id="bookmark-outline" viewBox="0 0 24 24"><path d="M17,18L12,15.82L7,18V5H17M17,3H7A2,2 0 0,0 5,5V21L12,18L19,21V5C19,3.89 18.1,3 17,3Z"/></symbol><symbol id="bookmark" viewBox="0 0 24 24"><path d="M17,3H7A2,2 0 0,0 5,5V21L12,18L19,21V5C19,3.89 18.1,3 17,3Z"/></symbol><symbol id="briefcase" viewBox="0 0 24 24"><path d="M10,2H14A2,2 0 0,1 16,4V6H20A2,2 0 0,1 22,8V19A2,2 0 0,1 20,21H4C2.89,21 2,20.1 2,19V8C2,6.89 2.89,6 4,6H8V4C8,2.89 8.89,2 10,2M14,6V4H10V6H14Z"/></symbol><symbol id="camera" viewBox="0 0 24 24"><path d="M4,4H7L9,2H15L17,4H20A2,2 0 0,1 22,6V18A2,2 0 0,1 20,20H4A2,2 0 0,1 2,18V6A2,2 0 0,1 4,4M12,7A5,5 0 0,0 7,12A5,5 0 0,0 12,17A5,5 0 0,0 17,12A5,5 0 0,0 12,7M12,9A3,3 0 0,1 15,12A3,3 0 0,1 12,15A3,3 0 0,1 9,12A3,3 0 0,1 12,9Z"/></symbol><symbol id="cart" viewBox="0 0 24 24"><path d="M17,18C15.89,18 15,18.89 15,20A2,2 0 0,0 17,22A2,2 0 0,0 19,20C19,18.89 18.1,18 17,18M1,2V4H3L6.6,11.59L5.24,14.04C5.09,14.32 5,14.65 5,15A2,2 0 0,0 7,17H19V15H7.42A0.25,0.25 0 0,1 7.17,14.75C7.17,14.7 7.18,14.66 7.2,14.63L8.1,13H15.55C16.3,13 16.96,12.58 17.3,11.97L20.88,5.5C20.95,5.34 21,5.17 21,5A1,1 0 0,0 20,4H5.21L4.27,2M7,18C5.89,18 5,18.89 5,20A2,2 0 0,0 7,22A2,2 0 0,0 9,20C9,18.89 8.1,18 7,18Z"/></symbol><symbol id="cellphone-erase" viewBox="0 0 24 24"><path d="M11,8.2L10,7.2L6,11.2L2,7.2L1,8.2L5,12.2L1,16.2L2,17.2L6,13.2L10,17.2L11,16.2L7,12.2L11,8.2M17,1H7A2,2 0 0,0 5,3V6H7V4H17V20H7V18H5V21A2,2 0 0,0 7,23H17A2,2 0 0,0 19,21V3A2,2 0 0,0 17,1Z"/></symbol><symbol id="chat" viewBox="0 0 24 24"><path d="M17,12V3A1,1 0 0,0 16,2H3A1,1 0 0,0 2,3V17L6,13H16A1,1 0 0,0 17,12M21,6H19V15H6V17A1,1 0 0,0 7,18H18L22,22V7A1,1 0 0,0 21,6Z"/></symbol><symbol id="check" viewBox="0 0 24 24"><path d="M21,7L9,19L3.5,13.5L4.91,12.09L9,16.17L19.59,5.59L21,7Z"/></symbol><symbol id="checkbox-blank-circle-outline" viewBox="0 0 24 24"><path d="M12,20A8,8 0 0,1 4,12A8,8 0 0,1 12,4A8,8 0 0,1 20,12A8,8 0 0,1 12,20M12,2A10,10 0 0,0 2,12A10,10 0 0,0 12,22A10,10 0 0,0 22,12A10,10 0 0,0 12,2Z"/></symbol><symbol id="checkbox-marked-circle-outline" viewBox="0 0 24 24"><path d="M20,12A8,8 0 0,1 12,20A8,8 0 0,1 4,12A8,8 0 0,1 12,4C12.76,4 13.5,4.11 14.2,4.31L15.77,2.74C14.61,2.26 13.34,2 12,2A10,10 0 0,0 2,12A10,10 0 0,0 12,22A10,10 0 0,0 22,12M7.91,10.08L6.5,11.5L11,16L21,6L19.59,4.58L11,13.17L7.91,10.08Z"/></symbol><symbol id="checkbox-marked-outline" viewBox="0 0 24 24"><path d="M19,19H5V5H15V3H5C3.89,3 3,3.89 3,5V19A2,2 0 0,0 5,21H19A2,2 0 0,0 21,19V11H19M7.91,10.08L6.5,11.5L11,16L21,6L19.59,4.58L11,13.17L7.91,10.08Z"/></symbol><symbol id="chevron-down" viewBox="0 0 24 24"><path d="M7.41,8.58L12,13.17L16.59,8.58L18,10L12,16L6,10L7.41,8.58Z"/></symbol><symbol id="chevron-left" viewBox="0 0 24 24"><path d="M15.41,16.58L10.83,12L15.41,7.41L14,6L8,12L14,18L15.41,16.58Z"/></symbol><symbol id="chevron-right" viewBox="0 0 24 24"><path d="M8.59,16.58L13.17,12L8.59,7.41L10,6L16,12L10,18L8.59,16.58Z"/></symbol><symbol id="chevron-up" viewBox="0 0 24 24"><path d="M7.41,15.41L12,10.83L16.59,15.41L18,14L12,8L6,14L7.41,15.41Z"/></symbol><symbol id="clipboard-text" viewBox="0 0 24 24"><path d="M17,9H7V7H17M17,13H7V11H17M14,17H7V15H14M12,3A1,1 0 0,1 13,4A1,1 0 0,1 12,5A1,1 0 0,1 11,4A1,1 0 0,1 12,3M19,3H14.82C14.4,1.84 13.3,1 12,1C10.7,1 9.6,1.84 9.18,3H5A2,2 0 0,0 3,5V19A2,2 0 0,0 5,21H19A2,2 0 0,0 21,19V5A2,2 0 0,0 19,3Z"/></symbol><symbol id="clock-end" viewBox="0 0 24 24"><path d="M12,1C8.14,1 5,4.14 5,8A7,7 0 0,0 12,15C15.86,15 19,11.87 19,8C19,4.14 15.86,1 12,1M12,3.15C14.67,3.15 16.85,5.32 16.85,8C16.85,10.68 14.67,12.85 12,12.85A4.85,4.85 0 0,1 7.15,8A4.85,4.85 0 0,1 12,3.15M11,5V8.69L14.19,10.53L14.94,9.23L12.5,7.82V5M15,16V19H3V21H15V24L19,20M19,20V24H21V16H19"/></symbol><symbol id="close-circle-outline" viewBox="0 0 24 24"><path d="M12,20C7.59,20 4,16.41 4,12C4,7.59 7.59,4 12,4C16.41,4 20,7.59 20,12C20,16.41 16.41,20 12,20M12,2C6.47,2 2,6.47 2,12C2,17.53 6.47,22 12,22C17.53,22 22,17.53 22,12C22,6.47 17.53,2 12,2M14.59,8L12,10.59L9.41,8L8,9.41L10.59,12L8,14.59L9.41,16L12,13.41L14.59,16L16,14.59L13.41,12L16,9.41L14.59,8Z"/></symbol><symbol id="close" viewBox="0 0 24 24"><path d="M19,6.41L17.59,5L12,10.59L6.41,5L5,6.41L10.59,12L5,17.59L6.41,19L12,13.41L17.59,19L19,17.59L13.41,12L19,6.41Z"/></symbol><symbol id="comment-question-outline" viewBox="0 0 24 24"><path d="M4,2A2,2 0 0,0 2,4V16A2,2 0 0,0 4,18H8V21A1,1 0 0,0 9,22H9.5V22C9.75,22 10,21.9 10.2,21.71L13.9,18H20A2,2 0 0,0 22,16V4C22,2.89 21.1,2 20,2H4M4,4H20V16H13.08L10,19.08V16H4V4M12.19,5.5C11.3,5.5 10.59,5.68 10.05,6.04C9.5,6.4 9.22,7 9.27,7.69C0.21,7.69 6.57,7.69 11.24,7.69C11.24,7.41 11.34,7.2 11.5,7.06C11.7,6.92 11.92,6.85 12.19,6.85C12.5,6.85 12.77,6.93 12.95,7.11C13.13,7.28 13.22,7.5 13.22,7.8C13.22,8.08 13.14,8.33 13,8.54C12.83,8.76 12.62,8.94 12.36,9.08C11.84,9.4 11.5,9.68 11.29,9.92C11.1,10.16 11,10.5 11,11H13C13,10.72 13.05,10.5 13.14,10.32C13.23,10.15 13.4,10 13.66,9.85C14.12,9.64 14.5,9.36 14.79,9C15.08,8.63 15.23,8.24 15.23,7.8C15.23,7.1 14.96,6.54 14.42,6.12C13.88,5.71 13.13,5.5 12.19,5.5M11,12V14H13V12H11Z"/></symbol><symbol id="crosshairs-gps" viewBox="0 0 24 24"><path d="M12,8A4,4 0 0,1 16,12A4,4 0 0,1 12,16A4,4 0 0,1 8,12A4,4 0 0,1 12,8M3.05,13H1V11H3.05C3.5,6.83 6.83,3.5 11,3.05V1H13V3.05C17.17,3.5 20.5,6.83 20.95,11H23V13H20.95C20.5,17.17 17.17,20.5 13,20.95V23H11V20.95C6.83,20.5 3.5,17.17 3.05,13M12,5A7,7 0 0,0 5,12A7,7 0 0,0 12,19A7,7 0 0,0 19,12A7,7 0 0,0 12,5Z"/></symbol><symbol id="cube-scan" viewBox="0 0 24 24"><path d="M17,22V20H20V17H22V20.5C22,20.89 21.84,21.24 21.54,21.54C21.24,21.84 20.89,22 20.5,22H17M7,22H3.5C3.11,22 2.76,21.84 2.46,21.54C2.16,21.24 2,20.89 2,20.5V17H4V20H7V22M17,2H20.5C20.89,2 21.24,2.16 21.54,2.46C21.84,2.76 22,3.11 22,3.5V7H20V4H17V2M7,2V4H4V7H2V3.5C2,3.11 2.16,2.76 2.46,2.46C2.76,2.16 3.11,2 3.5,2H7M13,17.25L17,14.95V10.36L13,12.66V17.25M12,10.92L16,8.63L12,6.28L8,8.63L12,10.92M7,14.95L11,17.25V12.66L7,10.36V14.95M18.23,7.59C18.73,7.91 19,8.34 19,8.91V15.23C19,15.8 18.73,16.23 18.23,16.55L12.75,19.73C12.25,20.05 11.75,20.05 11.25,19.73L5.77,16.55C5.27,16.23 5,15.8 5,15.23V8.91C5,8.34 5.27,7.91 5.77,7.59L11.25,4.41C11.5,4.28 11.75,4.22 12,4.22C12.25,4.22 12.5,4.28 12.75,4.41L18.23,7.59Z"/></symbol><symbol id="currency-usd" viewBox="0 0 24 24"><path d="M7,15H9C9,16.08 10.37,17 12,17C13.63,17 15,16.08 15,15C15,13.9 13.96,13.5 11.76,12.97C9.64,12.44 7,11.78 7,9C7,7.21 8.47,5.69 10.5,5.18V3H13.5V5.18C15.53,5.69 17,7.21 17,9H15C15,7.92 13.63,7 12,7C10.37,7 9,7.92 9,9C9,10.1 10.04,10.5 12.24,11.03C14.36,11.56 17,12.22 17,15C17,16.79 15.53,18.31 13.5,18.82V21H10.5V18.82C8.47,18.31 7,16.79 7,15Z"/></symbol><symbol id="delivery" viewBox="0 0 24 24"><path d="M3,13.5L2.25,12H7.5L6.9,10.5H2L1.25,9H9.05L8.45,7.5H1.11L0.25,6H4A2,2 0 0,1 6,4H18V8H21L24,12V17H22A3,3 0 0,1 19,20A3,3 0 0,1 16,17H12A3,3 0 0,1 9,20A3,3 0 0,1 6,17H4V13.5H3M19,18.5A1.5,1.5 0 0,0 20.5,17A1.5,1.5 0 0,0 19,15.5A1.5,1.5 0 0,0 17.5,17A1.5,1.5 0 0,0 19,18.5M20.5,9.5H18V12H22.46L20.5,9.5M9,18.5A1.5,1.5 0 0,0 10.5,17A1.5,1.5 0 0,0 9,15.5A1.5,1.5 0 0,0 7.5,17A1.5,1.5 0 0,0 9,18.5Z"/></symbol><symbol id="download" viewBox="0 0 24 24"><path d="M5,20H19V18H5M19,9H15V3H9V9H5L12,16L19,9Z"/></symbol><symbol id="electronics" viewBox="0 0 24 24"><path d="M24,16V5c0-1.103-0.897-2-2-2H2C0.897,3,0,3.897,0,5v11H24z"/><path d="M0,17v1c0,1.103,0.897,2,2,2h9v2H7v2h10v-2h-4v-2h9c1.103,0,2-0.897,2-2v-1H0z"/></symbol><symbol id="email" viewBox="0 0 24 24"><path d="M20,8L12,13L4,8V6L12,11L20,6M20,4H4C2.89,4 2,4.89 2,6V18A2,2 0 0,0 4,20H20A2,2 0 0,0 22,18V6C22,4.89 21.1,4 20,4Z"/></symbol><symbol id="eye-outline" viewBox="0 0 24 24"><path d="M12,9A3,3 0 0,1 15,12A3,3 0 0,1 12,15A3,3 0 0,1 9,12A3,3 0 0,1 12,9M12,4.5C17,4.5 21.27,7.61 23,12C21.27,16.39 17,19.5 12,19.5C7,19.5 2.73,16.39 1,12C2.73,7.61 7,4.5 12,4.5M3.18,12C4.83,15.36 8.24,17.5 12,17.5C15.76,17.5 19.17,15.36 20.82,12C19.17,8.64 15.76,6.5 12,6.5C8.24,6.5 4.83,8.64 3.18,12Z"/></symbol><symbol id="face-agent" viewBox="0 0 24 24"><path d="M18.72,14.76C19.07,13.91 19.26,13 19.26,12C19.26,11.28 19.15,10.59 18.96,9.95C18.31,10.1 17.63,10.18 16.92,10.18C13.86,10.18 11.15,8.67 9.5,6.34C8.61,8.5 6.91,10.26 4.77,11.22C4.73,11.47 4.73,11.74 4.73,12A7.27,7.27 0 0,0 12,19.27C13.05,19.27 14.06,19.04 14.97,18.63C15.54,19.72 15.8,20.26 15.78,20.26C14.14,20.81 12.87,21.08 12,21.08C9.58,21.08 7.27,20.13 5.57,18.42C4.53,17.38 3.76,16.11 3.33,14.73H2V10.18H3.09C3.93,6.04 7.6,2.92 12,2.92C14.4,2.92 16.71,3.87 18.42,5.58C19.69,6.84 20.54,8.45 20.89,10.18H22V14.67H22V14.69L22,14.73H21.94L18.38,18L13.08,17.4V15.73H17.91L18.72,14.76M9.27,11.77C9.57,11.77 9.86,11.89 10.07,12.11C10.28,12.32 10.4,12.61 10.4,12.91C10.4,13.21 10.28,13.5 10.07,13.71C9.86,13.92 9.57,14.04 9.27,14.04C8.64,14.04 8.13,13.54 8.13,12.91C8.13,12.28 8.64,11.77 9.27,11.77M14.72,11.77C15.35,11.77 15.85,12.28 15.85,12.91C15.85,13.54 15.35,14.04 14.72,14.04C14.09,14.04 13.58,13.54 13.58,12.91A1.14,1.14 0 0,1 14.72,11.77Z"/></symbol><symbol id="facebook-messenger" viewBox="0 0 24 24"><path d="M12,2C6.5,2 2,6.14 2,11.25C2,14.13 3.42,16.7 5.65,18.4L5.71,22L9.16,20.12L9.13,20.11C10.04,20.36 11,20.5 12,20.5C17.5,20.5 22,16.36 22,11.25C22,6.14 17.5,2 12,2M13.03,14.41L10.54,11.78L5.5,14.41L10.88,8.78L13.46,11.25L18.31,8.78L13.03,14.41Z"/></symbol><symbol id="facebook" viewBox="0 0 24 24"><path d="M17,2V2H17V6H15C14.31,6 14,6.81 14,7.5V10H14L17,10V14H14V22H10V14H7V10H10V6A4,4 0 0,1 14,2H17Z"/></symbol><symbol id="fashion" viewBox="0 0 24 24"><path d="M23.0301818,1.30333333 L15.8867879,1.30333333 C15.7183637,1.30333333 15.5656363,1.4030303 15.4981818,1.55745455 C14.8898182,2.94939394 13.5161212,3.84878788 11.9998788,3.84878788 C10.4832121,3.84878788 9.1099394,2.94939394 8.50115153,1.55745455 C8.433697,1.4030303 8.28139393,1.30333333 8.11254547,1.30333333 L0.969575757,1.30333333 C0.735393939,1.30333333 0.545333333,1.49339394 0.545333333,1.72757576 L0.545333333,7.6669697 C0.545333333,7.90115151 0.735393939,8.09121213 0.969575757,8.09121213 L4.78775757,8.09121213 L4.78775757,22.939697 C4.78775757,23.174303 4.97781818,23.3639394 5.212,23.3639394 L18.7877576,23.3639394 C19.0223637,23.3639394 19.212,23.174303 19.212,22.939697 L19.212,8.09121213 L23.0301818,8.09121213 C23.2647879,8.09121213 23.4544243,7.90115151 23.4544243,7.6669697 L23.4544243,1.72757576 C23.4544243,1.49339394 23.2647879,1.30333333 23.0301818,1.30333333 L23.0301818,1.30333333 Z"/></symbol><symbol id="file" viewBox="0 0 24 24"><path d="M13,9V3.5L18.5,9M6,2C4.89,2 4,2.89 4,4V20A2,2 0 0,0 6,22H18A2,2 0 0,0 20,20V8L14,2H6Z"/></symbol><symbol id="filter" viewBox="0 0 24 24"><path d="M15,19.88C15.04,20.18 14.94,20.5 14.71,20.71C14.32,21.1 13.69,21.1 13.3,20.71L9.29,16.7C9.06,16.47 8.96,16.16 9,15.87V10.75L4.21,4.62C3.87,4.19 3.95,3.56 4.38,3.22C4.57,3.08 4.78,3 5,3V3H19V3C19.22,3 19.43,3.08 19.62,3.22C20.05,3.56 20.13,4.19 19.79,4.62L15,10.75V19.88M7.04,5L11,10.06V15.58L13,17.58V10.05L16.96,5H7.04Z"/></symbol><symbol id="general-plan" viewBox="0 0 24 24"><path d="M22.52,6.32 C22.36,6.16 22.2,6.16 22.04,6.24 L15.96,8.24 L15.96,8.24 C15.88,8.24 15.8,8.32 15.8,8.32 L15.08,9.04 L15.08,4.8 L15.08,4.32 L15.08,0.96 C15.08,0.72 14.84,0.48 14.6,0.48 C14.6,0.24 14.44,0 14.12,0 L3.64,0 C2.52,0 1.72,1.12 1.72,2.08 L1.72,2.88 L1.72,16.64 C1.72,16.88 1.96,17.12 2.2,17.12 L4.12,17.12 L6.92,17.12 L5,19.12 C4.92,19.2 4.84,19.36 4.84,19.44 C4.84,19.6 4.92,19.68 5,19.76 L9.08,23.84 C9.16,23.92 9.32,24 9.4,24 L9.4,24 C9.56,24 9.64,23.92 9.72,23.84 L12.44,21.12 L20.52,13.04 C20.6,12.96 20.6,12.96 20.6,12.88 L20.6,12.88 L22.6,6.8 C22.68,6.64 22.68,6.48 22.52,6.32 L22.52,6.32 Z M19.08,8.24 L20.68,9.84 L20.04,11.84 L17,8.88 L19.08,8.24 L19.08,8.24 Z M10.76,21.52 L7.4,18.16 L8.04,17.52 L11.4,20.8 L10.76,21.52 L10.76,21.52 L10.76,21.52 Z M6.52,3.84 L4.12,3.84 L3.64,3.84 C3.08,3.84 2.68,3.44 2.68,2.88 L2.68,2.88 L14.12,2.88 L14.12,3.84 L6.52,3.84 L6.52,3.84 Z M3.64,0.96 L14.12,0.96 L14.12,1.92 L2.68,1.92 C2.76,1.44 3.16,0.96 3.64,0.96 L3.64,0.96 Z M4.6,4.8 L6.52,4.8 L14.12,4.8 L14.12,9.6 C14.12,9.76 14.2,9.84 14.28,9.92 L13.16,11.04 L13.16,6.24 C13.16,6 12.92,5.76 12.68,5.76 L6.04,5.76 C5.8,5.76 5.56,6 5.56,6.24 L5.56,12.96 C5.56,13.2 5.8,13.44 6.04,13.44 L10.76,13.44 L9.64,14.56 C9.56,14.48 9.48,14.4 9.32,14.4 L6.52,14.4 C6.28,14.4 6.04,14.64 6.04,14.88 C6.04,15.12 6.28,15.36 6.52,15.36 L8.84,15.36 L7.72,16.48 C7.64,16.4 7.56,16.32 7.4,16.32 L4.6,16.32 L4.6,4.8 L4.6,4.8 Z M9.4,22.88 L6.04,19.52 L6.68,18.88 L10.04,22.24 L10.04,22.24 L9.4,22.88 L9.4,22.88 Z"/></symbol><symbol id="gmaps" viewBox="0 0 24 24"><path d="M12,11.5A2.5,2.5 0 0,1 9.5,9A2.5,2.5 0 0,1 12,6.5A2.5,2.5 0 0,1 14.5,9A2.5,2.5 0 0,1 12,11.5M12,2A7,7 0 0,0 5,9C5,14.25 12,22 12,22C12,22 19,14.25 19,9A7,7 0 0,0 12,2Z"/></symbol><symbol id="google" viewBox="0 0 24 24"><path d="M23,11H21V9H19V11H17V13H19V15H21V13H23M8,11V13.4H12C11.8,14.4 10.8,16.4 8,16.4C5.6,16.4 3.7,14.4 3.7,12C3.7,9.6 5.6,7.6 8,7.6C9.4,7.6 10.3,8.2 10.8,8.7L12.7,6.9C11.5,5.7 9.9,5 8,5C4.1,5 1,8.1 1,12C1,15.9 4.1,19 8,19C12,19 14.7,16.2 14.7,12.2C14.7,11.7 14.7,11.4 14.6,11H8Z"/></symbol><symbol id="heart" viewBox="0 0 24 24"><path d="M12,21.35L10.55,20.03C5.4,15.36 2,12.27 2,8.5C2,5.41 4.42,3 7.5,3C9.24,3 10.91,3.81 12,5.08C13.09,3.81 14.76,3 16.5,3C19.58,3 22,5.41 22,8.5C22,12.27 18.6,15.36 13.45,20.03L12,21.35Z"/></symbol><symbol id="image-multiple" viewBox="0 0 24 24"><path d="M22,16V4A2,2 0 0,0 20,2H8A2,2 0 0,0 6,4V16A2,2 0 0,0 8,18H20A2,2 0 0,0 22,16M11,12L13.03,14.71L16,11L20,16H8M2,6V20A2,2 0 0,0 4,22H18V20H4V6"/></symbol><symbol id="image-size-select-large" viewBox="0 0 24 24"><path d="M21,15H23V17H21V15M21,11H23V13H21V11M23,19H21V21C22,21 23,20 23,19M13,3H15V5H13V3M21,7H23V9H21V7M21,3V5H23C23,4 22,3 21,3M1,7H3V9H1V7M17,3H19V5H17V3M17,19H19V21H17V19M3,3C2,3 1,4 1,5H3V3M9,3H11V5H9V3M5,3H7V5H5V3M1,11V19A2,2 0 0,0 3,21H15V11H1M3,19L5.5,15.79L7.29,17.94L9.79,14.72L13,19H3Z"/></symbol><symbol id="image" viewBox="0 0 24 24"><path d="M8.5,13.5L11,16.5L14.5,12L19,18H5M21,19V5C21,3.89 20.1,3 19,3H5A2,2 0 0,0 3,5V19A2,2 0 0,0 5,21H19A2,2 0 0,0 21,19Z"/></symbol><symbol id="incognito" viewBox="0 0 24 24"><path d="M12,3C9.31,3 7.41,4.22 7.41,4.22L6,9H18L16.59,4.22C16.59,4.22 14.69,3 12,3M12,11C9.27,11 5.39,11.54 5.13,11.59C4.09,11.87 3.25,12.15 2.59,12.41C1.58,12.75 1,13 1,13H23C23,13 22.42,12.75 21.41,12.41C20.75,12.15 19.89,11.87 18.84,11.59C18.84,11.59 14.82,11 12,11M7.5,14A3.5,3.5 0 0,0 4,17.5A3.5,3.5 0 0,0 7.5,21A3.5,3.5 0 0,0 11,17.5C11,17.34 11,17.18 10.97,17.03C11.29,16.96 11.63,16.9 12,16.91C12.37,16.91 12.71,16.96 13.03,17.03C13,17.18 13,17.34 13,17.5A3.5,3.5 0 0,0 16.5,21A3.5,3.5 0 0,0 20,17.5A3.5,3.5 0 0,0 16.5,14C15.03,14 13.77,14.9 13.25,16.19C12.93,16.09 12.55,16 12,16C11.45,16 11.07,16.09 10.75,16.19C10.23,14.9 8.97,14 7.5,14M7.5,15A2.5,2.5 0 0,1 10,17.5A2.5,2.5 0 0,1 7.5,20A2.5,2.5 0 0,1 5,17.5A2.5,2.5 0 0,1 7.5,15M16.5,15A2.5,2.5 0 0,1 19,17.5A2.5,2.5 0 0,1 16.5,20A2.5,2.5 0 0,1 14,17.5A2.5,2.5 0 0,1 16.5,15Z"/></symbol><symbol id="information-variant" viewBox="0 0 24 24"><path d="M13.5,4A1.5,1.5 0 0,0 12,5.5A1.5,1.5 0 0,0 13.5,7A1.5,1.5 0 0,0 15,5.5A1.5,1.5 0 0,0 13.5,4M13.14,8.77C11.95,8.87 8.7,11.46 8.7,11.46C8.5,11.61 8.56,11.6 8.72,11.88C8.88,12.15 8.86,12.17 9.05,12.04C9.25,11.91 9.58,11.7 10.13,11.36C12.25,10 10.47,13.14 9.56,18.43C9.2,21.05 11.56,19.7 12.17,19.3C12.77,18.91 14.38,17.8 14.54,17.69C14.76,17.54 14.6,17.42 14.43,17.17C14.31,17 14.19,17.12 14.19,17.12C13.54,17.55 12.35,18.45 12.19,17.88C12,17.31 13.22,13.4 13.89,10.71C14,10.07 14.3,8.67 13.14,8.77Z"/></symbol><symbol id="instagram" viewBox="0 0 24 24"><path d="M7.8,2H16.2C19.4,2 22,4.6 22,7.8V16.2A5.8,5.8 0 0,1 16.2,22H7.8C4.6,22 2,19.4 2,16.2V7.8A5.8,5.8 0 0,1 7.8,2M7.6,4A3.6,3.6 0 0,0 4,7.6V16.4C4,18.39 5.61,20 7.6,20H16.4A3.6,3.6 0 0,0 20,16.4V7.6C20,5.61 18.39,4 16.4,4H7.6M17.25,5.5A1.25,1.25 0 0,1 18.5,6.75A1.25,1.25 0 0,1 17.25,8A1.25,1.25 0 0,1 16,6.75A1.25,1.25 0 0,1 17.25,5.5M12,7A5,5 0 0,1 17,12A5,5 0 0,1 12,17A5,5 0 0,1 7,12A5,5 0 0,1 12,7M12,9A3,3 0 0,0 9,12A3,3 0 0,0 12,15A3,3 0 0,0 15,12A3,3 0 0,0 12,9Z"/></symbol><symbol id="key" viewBox="0 0 24 24"><path d="M7,14A2,2 0 0,1 5,12A2,2 0 0,1 7,10A2,2 0 0,1 9,12A2,2 0 0,1 7,14M12.65,10C11.83,7.67 9.61,6 7,6A6,6 0 0,0 1,12A6,6 0 0,0 7,18C9.61,18 11.83,16.33 12.65,14H17V18H21V14H23V10H12.65Z"/></symbol><symbol id="laptop" viewBox="0 0 24 24"><path d="M4,6H20V16H4M20,18A2,2 0 0,0 22,16V6C22,4.89 21.1,4 20,4H4C2.89,4 2,4.89 2,6V16A2,2 0 0,0 4,18H0V20H24V18H20Z"/></symbol><symbol id="linkedin" viewBox="0 0 24 24"><path d="M21,21H17V14.25C17,13.19 15.81,12.31 14.75,12.31C13.69,12.31 13,13.19 13,14.25V21H9V9H13V11C13.66,9.93 15.36,9.24 16.5,9.24C19,9.24 21,11.28 21,13.75V21M7,21H3V9H7V21M5,3A2,2 0 0,1 7,5A2,2 0 0,1 5,7A2,2 0 0,1 3,5A2,2 0 0,1 5,3Z"/></symbol><symbol id="lock-outline" viewBox="0 0 24 24"><path d="M12,17C10.89,17 10,16.1 10,15C10,13.89 10.89,13 12,13A2,2 0 0,1 14,15A2,2 0 0,1 12,17M18,20V10H6V20H18M18,8A2,2 0 0,1 20,10V20A2,2 0 0,1 18,22H6C4.89,22 4,21.1 4,20V10C4,8.89 4.89,8 6,8H7V6A5,5 0 0,1 12,1A5,5 0 0,1 17,6V8H18M12,3A3,3 0 0,0 9,6V8H15V6A3,3 0 0,0 12,3Z"/></symbol><symbol id="magnify" viewBox="0 0 24 24"><path d="M9.5,3A6.5,6.5 0 0,1 16,9.5C16,11.11 15.41,12.59 14.44,13.73L14.71,14H15.5L20.5,19L19,20.5L14,15.5V14.71L13.73,14.44C12.59,15.41 11.11,16 9.5,16A6.5,6.5 0 0,1 3,9.5A6.5,6.5 0 0,1 9.5,3M9.5,5C7,5 5,7 5,9.5C5,12 7,14 9.5,14C12,14 14,12 14,9.5C14,7 12,5 9.5,5Z"/></symbol><symbol id="menu" viewBox="0 0 24 24"><path d="M3,6H21V8H3V6M3,11H21V13H3V11M3,16H21V18H3V16Z"/></symbol><symbol id="minus" viewBox="0 0 24 24"><path d="M19,13H5V11H19V13Z"/></symbol><symbol id="open-in-new" viewBox="0 0 24 24"><path d="M14,3V5H17.59L7.76,14.83L9.17,16.24L19,6.41V10H21V3M19,19H5V5H12V3H5C3.89,3 3,3.9 3,5V19A2,2 0 0,0 5,21H19A2,2 0 0,0 21,19V12H19V19Z"/></symbol><symbol id="paperclip" viewBox="0 0 24 24"><path d="M16.5,6V17.5A4,4 0 0,1 12.5,21.5A4,4 0 0,1 8.5,17.5V5A2.5,2.5 0 0,1 11,2.5A2.5,2.5 0 0,1 13.5,5V15.5A1,1 0 0,1 12.5,16.5A1,1 0 0,1 11.5,15.5V6H10V15.5A2.5,2.5 0 0,0 12.5,18A2.5,2.5 0 0,0 15,15.5V5A4,4 0 0,0 11,1A4,4 0 0,0 7,5V17.5A5.5,5.5 0 0,0 12.5,23A5.5,5.5 0 0,0 18,17.5V6H16.5Z"/></symbol><symbol id="pencil-box-outline" viewBox="0 0 24 24"><path d="M19,19V5H5V19H19M19,3A2,2 0 0,1 21,5V19C21,20.11 20.1,21 19,21H5A2,2 0 0,1 3,19V5A2,2 0 0,1 5,3H19M16.7,9.35L15.7,10.35L13.65,8.3L14.65,7.3C14.86,7.08 15.21,7.08 15.42,7.3L16.7,8.58C16.92,8.79 16.92,9.14 16.7,9.35M7,14.94L13.06,8.88L15.12,10.94L9.06,17H7V14.94Z"/></symbol><symbol id="pencil" viewBox="0 0 24 24"><path d="M20.71,7.04C21.1,6.65 21.1,6 20.71,5.63L18.37,3.29C18,2.9 17.35,2.9 16.96,3.29L15.12,5.12L18.87,8.87M3,17.25V21H6.75L17.81,9.93L14.06,6.18L3,17.25Z"/></symbol><symbol id="phone" viewBox="0 0 24 24"><path d="M15,12H17A5,5 0 0,0 12,7V9A3,3 0 0,1 15,12M19,12H21C21,7 16.97,3 12,3V5C15.86,5 19,8.13 19,12M20,15.5C18.75,15.5 17.55,15.3 16.43,14.93C16.08,14.82 15.69,14.9 15.41,15.18L13.21,17.38C10.38,15.94 8.06,13.62 6.62,10.79L8.82,8.59C9.1,8.31 9.18,7.92 9.07,7.57C8.7,6.45 8.5,5.25 8.5,4A1,1 0 0,0 7.5,3H4A1,1 0 0,0 3,4A17,17 0 0,0 20,21A1,1 0 0,0 21,20V16.5A1,1 0 0,0 20,15.5Z"/></symbol><symbol id="picture" viewBox="0 0 24 24"><path d="M8.5,13.5L11,16.5L14.5,12L19,18H5M21,19V5C21,3.89 20.1,3 19,3H5A2,2 0 0,0 3,5V19A2,2 0 0,0 5,21H19A2,2 0 0,0 21,19Z"/></symbol><symbol id="pinterest" viewBox="0 0 24 24"><path d="M9.04,21.54C10,21.83 10.97,22 12,22A10,10 0 0,0 22,12A10,10 0 0,0 12,2A10,10 0 0,0 2,12C2,16.25 4.67,19.9 8.44,21.34C8.35,20.56 8.26,19.27 8.44,18.38L9.59,13.44C9.59,13.44 9.3,12.86 9.3,11.94C9.3,10.56 10.16,9.53 11.14,9.53C12,9.53 12.4,10.16 12.4,10.97C12.4,11.83 11.83,13.06 11.54,14.24C11.37,15.22 12.06,16.08 13.06,16.08C14.84,16.08 16.22,14.18 16.22,11.5C16.22,9.1 14.5,7.46 12.03,7.46C9.21,7.46 7.55,9.56 7.55,11.77C7.55,12.63 7.83,13.5 8.29,14.07C8.38,14.13 8.38,14.21 8.35,14.36L8.06,15.45C8.06,15.62 7.95,15.68 7.78,15.56C6.5,15 5.76,13.18 5.76,11.71C5.76,8.55 8,5.68 12.32,5.68C15.76,5.68 18.44,8.15 18.44,11.43C18.44,14.87 16.31,17.63 13.26,17.63C12.29,17.63 11.34,17.11 11,16.5L10.33,18.87C10.1,19.73 9.47,20.88 9.04,21.57V21.54Z"/></symbol><symbol id="play-circle-outline" viewBox="0 0 24 24"><path d="M12,20C7.59,20 4,16.41 4,12C4,7.59 7.59,4 12,4C16.41,4 20,7.59 20,12C20,16.41 16.41,20 12,20M12,2A10,10 0 0,0 2,12A10,10 0 0,0 12,22A10,10 0 0,0 22,12A10,10 0 0,0 12,2M10,16.5L16,12L10,7.5V16.5Z"/></symbol><symbol id="plus" viewBox="0 0 24 24"><path d="M19,13H13V19H11V13H5V11H11V5H13V11H19V13Z"/></symbol><symbol id="premium" viewBox="0 0 26 26"><g fill-rule="evenodd"><path d="M23.0791187,13.2132473 L25.3555585,15.4401995 C25.6854778,15.7481237 25.7954506,16.1330289 25.6854778,16.5949152 C25.5535099,17.045804 25.2675799,17.3262347 24.8276887,17.4362075 L21.7264515,18.2280132 L22.6007365,21.2962576 C22.7327045,21.7471464 22.62823,22.1320526 22.287314,22.4509734 C21.9683923,22.7918893 21.583487,22.8963638 21.1325983,22.7643969 L18.0643538,21.8901119 L17.2725482,24.9913481 C17.1625754,25.4312402 16.8821446,25.7171693 16.4312549,25.8491372 C16.2992879,25.8711314 16.1948134,25.8821289 16.1178324,25.8821289 C15.7769165,25.8821289 15.4964857,25.7611586 15.2765401,25.5192188 L13.0495879,23.2427791 L10.8226358,25.5192188 C10.5147116,25.8491372 10.1298063,25.95911 9.66791999,25.8491372 C9.21703126,25.7281668 8.9366005,25.4422368 8.82662771,24.9913481 L8.03482206,21.8901119 L4.9665776,22.7643969 C4.51568887,22.8963638 4.13078361,22.7918893 3.81186184,22.4509734 C3.47094589,22.1320526 3.3664714,21.7471464 3.49843835,21.2962576 L4.37272336,18.2280132 L1.27148716,17.4362075 C0.831595018,17.3262347 0.545665964,17.045804 0.413698026,16.5949152 C0.303725237,16.1330289 0.413698026,15.7481237 0.743617378,15.4401995 L3.02005618,13.2132473 L0.743617378,10.9862961 C0.413698026,10.6783719 0.303725237,10.2934666 0.413698026,9.83158034 C0.545665964,9.38069063 0.831595018,9.10025987 1.27148716,8.99028708 L4.37272336,8.19848142 L3.49843835,5.13023696 C3.3664714,4.67934823 3.47094589,4.29444298 3.81186184,3.9755212 C4.13078361,3.63460526 4.51568887,3.53013076 4.9665776,3.6620987 L8.03482206,4.5363837 L8.82662771,1.43514652 C8.9366005,0.984257792 9.21703126,0.703827032 9.66791999,0.593854243 C10.1188087,0.461886305 10.503715,0.566360799 10.8226358,0.907276741 L13.0495879,3.2002124 L15.2765401,0.907276741 C15.5954609,0.577358374 15.9803662,0.472883879 16.4312549,0.593854243 C16.8821446,0.703827032 17.1625754,0.984257792 17.2725482,1.43514652 L18.0643538,4.5363837 L21.1325983,3.6620987 C21.583487,3.53013076 21.9683923,3.63460526 22.287314,3.9755212 C22.62823,4.29444298 22.7327045,4.67934823 22.6007365,5.13023696 L21.7264515,8.19848142 L24.8276887,8.99028708 C25.2675799,9.10025987 25.5535099,9.38069063 25.6854778,9.83158034 C25.7954506,10.2934666 25.6854778,10.6783719 25.3555585,10.9862961 L23.0791187,13.2132473 Z"/><path d="M13.9861777,2.55240229 C13.9861777,2.78624552 13.9020431,2.9850129 13.7337738,3.14870338 L7.20733192,9.49755505 L5.98137023,10.6901572 C5.813101,10.8538477 5.60877423,10.935693 5.36838938,10.935693 C5.12800508,10.935693 4.92367777,10.8538477 4.75540854,10.6901572 L3.52944738,9.49755505 L0.266226154,6.32312948 C0.0979569231,6.159439 0.0138223077,5.96067162 0.0138223077,5.72682838 C0.0138223077,5.49298462 0.0979569231,5.29421776 0.266226154,5.13052729 L1.49218731,3.9379251 C1.66045654,3.77423462 1.86478385,3.69238938 2.10516815,3.69238938 C2.345553,3.69238938 2.54987977,3.77423462 2.718149,3.9379251 L5.36838938,6.52481919 L11.281851,0.763499 C11.4501202,0.599808524 11.654447,0.517963286 11.8948318,0.517963286 C12.1352162,0.517963286 12.3395435,0.599808524 12.5078127,0.763499 L13.7337738,1.95610119 C13.9020431,2.11979167 13.9861777,2.31855852 13.9861777,2.55240229 Z" transform="translate(6 8)" fill="#FFF"/></g></symbol><symbol id="priority-star" viewBox="0 0 30 35"><g fill-rule="evenodd"><circle fill="#FFF" cx="15" cy="14" r="11"/><path d="M29.78,29.6615094 C29.78,29.6615094 25.9053774,23.0022642 25.2103774,21.8079245 C26.0011321,21.5666981 26.8434906,21.3536792 27.1934906,20.7493396 C27.7767925,19.7423585 26.7384906,18.0904717 27.0111321,17.0111321 C27.2919811,15.900283 28.9499057,14.9390566 28.9499057,13.8099057 C28.9499057,12.7098113 27.2358491,11.4246226 26.9548113,10.320283 C26.680283,9.24113208 27.7154717,7.58745283 27.130283,6.58169811 C26.5450943,5.57584906 24.5959434,5.65849057 23.7935849,4.88641509 C22.9680189,4.09188679 22.970566,2.14792453 21.9748113,1.6154717 C20.975,1.08103774 19.3500943,2.16113208 18.24,1.90528302 C17.1425472,1.65235849 16.1620755,0 15.0157547,0 C13.8524528,0 12.0021698,1.87433962 11.7119811,1.94179245 C10.6024528,2.19971698 8.9754717,1.12226415 7.97669811,1.65896226 C6.98188679,2.19320755 6.98801887,4.13735849 6.16396226,4.93320755 C5.36292453,5.70669811 3.41367925,5.62764151 2.83028302,6.63462264 C2.24698113,7.64141509 3.28528302,9.29292453 3.01273585,10.3728302 C2.73943396,11.4554717 1.02377358,12.5524528 1.02377358,13.8045283 C1.02377358,14.9337736 2.68584906,15.8919811 2.96839623,17.0022642 C3.24301887,18.0814151 2.20783019,19.7349057 2.79301887,20.7410377 C3.11160377,21.2886792 3.83443396,21.5134906 4.55632075,21.7296226 C4.64056604,21.7548113 4.79990566,21.8490566 4.69198113,22.0063208 C4.19811321,22.8587736 0.223113208,29.7190566 0.223113208,29.7190566 C-0.0931132075,30.264717 0.163679245,30.7324528 0.793584906,30.7589623 L3.87688679,30.8875472 C4.50679245,30.9140566 5.29698113,31.3717925 5.63320755,31.9050943 L7.27849057,34.5158491 C7.61471698,35.0491509 8.14820755,35.0391509 8.46433962,34.4935849 C8.46433962,34.4935849 13.0678302,26.5458491 13.069717,26.5435849 C13.1620755,26.4356604 13.2549057,26.4578302 13.2993396,26.495566 C13.8030189,26.924434 14.5051887,27.3522642 15.0912264,27.3522642 C15.6659434,27.3522642 16.1981132,26.9495283 16.7245283,26.5003774 C16.7673585,26.4638679 16.8716038,26.3890566 16.9478302,26.5443396 C16.9490566,26.5467925 21.5474528,34.4510377 21.5474528,34.4510377 C21.864434,34.9959434 22.3980189,35.0051887 22.7332075,34.4712264 L24.3738679,31.8573585 C24.7091509,31.3236792 25.4984906,30.8641509 26.1283962,30.8366981 L29.2114151,30.7023585 C29.8410377,30.674717 30.0969811,30.2063208 29.78,29.6615094 Z M20.1113208,22.5123585 C16.7022642,24.4956604 12.610283,24.2831132 9.48481132,22.3116981 C4.90509434,19.3782075 3.39820755,13.3099057 6.15132075,8.55811321 C8.93584906,3.75150943 15.0568868,2.0554717 19.9067925,4.69688679 C19.9322642,4.71075472 19.9574528,4.72509434 19.9827358,4.73924528 C20.0186792,4.75915094 20.0545283,4.77933962 20.090283,4.79971698 C21.5865094,5.66235849 22.8839623,6.91433962 23.8130189,8.51122642 C26.6524528,13.3919811 24.9919811,19.6729245 20.1113208,22.5123585 Z" fill-rule="nonzero"/><path d="M19.3316981,6.23613208 C19.3175472,6.22792453 19.3032075,6.22028302 19.2890566,6.21216981 C16.6983019,4.71273585 13.3962264,4.60311321 10.6287736,6.21320755 C6.52198113,8.60245283 5.1245283,13.8872642 7.51377358,17.9939623 C8.24283019,19.2471698 9.24188679,20.2475472 10.3945283,20.9654717 C10.4925472,21.0275472 10.5916981,21.0885849 10.6930189,21.1472642 C14.8042453,23.5290566 20.0862264,22.1220755 22.4679245,18.0110377 C24.8495283,13.8998113 23.4429245,8.61792453 19.3316981,6.23613208 Z M20.3601887,12.9569811 L18.9206604,14.3600943 C18.4748113,14.7946226 18.1961321,15.6523585 18.3015094,16.2660377 L18.6413208,18.2472642 C18.7466038,18.8609434 18.3818868,19.1259434 17.8307547,18.8362264 L16.0514151,17.9007547 C15.500283,17.6110377 14.5984906,17.6110377 14.0473585,17.9007547 L12.2681132,18.8362264 C11.7169811,19.1259434 11.3521698,18.8609434 11.4574528,18.2472642 L11.7972642,16.2660377 C11.9025472,15.6523585 11.6238679,14.7946226 11.1780189,14.3600943 L9.73858491,12.9569811 C9.29264151,12.5224528 9.43207547,12.0935849 10.0482075,12.0039623 L12.0374528,11.7149057 C12.6535849,11.6253774 13.3832075,11.095283 13.6587736,10.5369811 L14.5483962,8.73443396 C14.8239623,8.17613208 15.2749057,8.17613208 15.5503774,8.73443396 L16.4400943,10.5369811 C16.7156604,11.095283 17.4451887,11.6253774 18.0614151,11.7149057 L20.0506604,12.0039623 C20.6666981,12.0935849 20.8060377,12.5224528 20.3601887,12.9569811 Z" fill-rule="nonzero"/></g></symbol><symbol id="question-mark-circle" viewBox="0 0 24 24"><path d="M15.07,11.25L14.17,12.17C13.45,12.89 13,13.5 13,15H11V14.5C11,13.39 11.45,12.39 12.17,11.67L13.41,10.41C13.78,10.05 14,9.55 14,9C14,7.89 13.1,7 12,7A2,2 0 0,0 10,9H8A4,4 0 0,1 12,5A4,4 0 0,1 16,9C16,9.88 15.64,10.67 15.07,11.25M13,19H11V17H13M12,2A10,10 0 0,0 2,12A10,10 0 0,0 12,22A10,10 0 0,0 22,12C22,6.47 17.5,2 12,2Z"/></symbol><symbol id="refresh" viewBox="0 0 24 24"><path d="M17.65,6.35C16.2,4.9 14.21,4 12,4A8,8 0 0,0 4,12A8,8 0 0,0 12,20C15.73,20 18.84,17.45 19.73,14H17.65C16.83,16.33 14.61,18 12,18A6,6 0 0,1 6,12A6,6 0 0,1 12,6C13.66,6 15.14,6.69 16.22,7.78L13,11H20V4L17.65,6.35Z"/></symbol><symbol id="rocket" viewBox="0 0 24 24"><path d="M13.13 22.19L11.5 18.36C13.07 17.78 14.54 17 15.9 16.09L13.13 22.19M5.64 12.5L1.81 10.87L7.91 8.1C7 9.46 6.22 10.93 5.64 12.5M21.61 2.39C21.61 2.39 16.66 .269 11 5.93C8.81 8.12 7.5 10.53 6.65 12.64C6.37 13.39 6.56 14.21 7.11 14.77L9.24 16.89C9.79 17.45 10.61 17.63 11.36 17.35C13.5 16.53 15.88 15.19 18.07 13C23.73 7.34 21.61 2.39 21.61 2.39M14.54 9.46C13.76 8.68 13.76 7.41 14.54 6.63S16.59 5.85 17.37 6.63C18.14 7.41 18.15 8.68 17.37 9.46C16.59 10.24 15.32 10.24 14.54 9.46M8.88 16.53L7.47 15.12L8.88 16.53M6.24 22L9.88 18.36C9.54 18.27 9.21 18.12 8.91 17.91L4.83 22H6.24M2 22H3.41L8.18 17.24L6.76 15.83L2 20.59V22M2 19.17L6.09 15.09C5.88 14.79 5.73 14.47 5.64 14.12L2 17.76V19.17Z"/></symbol><symbol id="rotate-left" viewBox="0 0 24 24"><path d="M4,2H7A2,2 0 0,1 9,4V20A2,2 0 0,1 7,22H4A2,2 0 0,1 2,20V4A2,2 0 0,1 4,2M20,15A2,2 0 0,1 22,17V20A2,2 0 0,1 20,22H11V15H20M14,4A8,8 0 0,1 22,12L21.94,13H19.92L20,12A6,6 0 0,0 14,6V9L10,5L14,1V4Z"/></symbol><symbol id="rotate-right" viewBox="0 0 24 24"><path d="M10,4V1L14,5L10,9V6A6,6 0 0,0 4,12L4.08,13H2.06L2,12A8,8 0 0,1 10,4M17,2H20A2,2 0 0,1 22,4V20A2,2 0 0,1 20,22H17A2,2 0 0,1 15,20V4A2,2 0 0,1 17,2M4,15H13V22H4A2,2 0 0,1 2,20V17A2,2 0 0,1 4,15Z"/></symbol><symbol id="settings" viewBox="0 0 24 24"><path d="M12,15.5A3.5,3.5 0 0,1 8.5,12A3.5,3.5 0 0,1 12,8.5A3.5,3.5 0 0,1 15.5,12A3.5,3.5 0 0,1 12,15.5M19.43,12.97C19.47,12.65 19.5,12.33 19.5,12C19.5,11.67 19.47,11.34 19.43,11L21.54,9.37C21.73,9.22 21.78,8.95 21.66,8.73L19.66,5.27C19.54,5.05 19.27,4.96 19.05,5.05L16.56,6.05C16.04,5.66 15.5,5.32 14.87,5.07L14.5,2.42C14.46,2.18 14.25,2 14,2H10C9.75,2 9.54,2.18 9.5,2.42L9.13,5.07C8.5,5.32 7.96,5.66 7.44,6.05L4.95,5.05C4.73,4.96 4.46,5.05 4.34,5.27L2.34,8.73C2.21,8.95 2.27,9.22 2.46,9.37L4.57,11C4.53,11.34 4.5,11.67 4.5,12C4.5,12.33 4.53,12.65 4.57,12.97L2.46,14.63C2.27,14.78 2.21,15.05 2.34,15.27L4.34,18.73C4.46,18.95 4.73,19.03 4.95,18.95L7.44,17.94C7.96,18.34 8.5,18.68 9.13,18.93L9.5,21.58C9.54,21.82 9.75,22 10,22H14C14.25,22 14.46,21.82 14.5,21.58L14.87,18.93C15.5,18.67 16.04,18.34 16.56,17.94L19.05,18.95C19.27,19.03 19.54,18.95 19.66,18.73L21.66,15.27C21.78,15.05 21.73,14.78 21.54,14.63L19.43,12.97Z"/></symbol><symbol id="shape-circle-plus" viewBox="0 0 24 24"><path d="M11,19A6,6 0 0,0 17,13H19A8,8 0 0,1 11,21A8,8 0 0,1 3,13A8,8 0 0,1 11,5V7A6,6 0 0,0 5,13A6,6 0 0,0 11,19M19,5H22V7H19V10H17V7H14V5H17V2H19V5Z"/></symbol><symbol id="sort" viewBox="0 0 24 24"><path d="M10,13V11H18V13H10M10,19V17H14V19H10M10,7V5H22V7H10M6,17H8.5L5,20.5L1.5,17H4V7H1.5L5,3.5L8.5,7H6V17Z"/></symbol><symbol id="star-outline" viewBox="0 0 24 24"><path d="M12,15.39L8.24,17.66L9.23,13.38L5.91,10.5L10.29,10.13L12,6.09L13.71,10.13L18.09,10.5L14.77,13.38L15.76,17.66M22,9.24L14.81,8.63L12,2L9.19,8.63L2,9.24L7.45,13.97L5.82,21L12,17.27L18.18,21L16.54,13.97L22,9.24Z"/></symbol><symbol id="star" viewBox="0 0 24 24"><path d="M12,17.27L18.18,21L16.54,13.97L22,9.24L14.81,8.62L12,2L9.19,8.62L2,9.24L7.45,13.97L5.82,21L12,17.27Z"/></symbol><symbol id="stop-circle-outline" viewBox="0 0 24 24"><path d="M12,2A10,10 0 0,0 2,12A10,10 0 0,0 12,22A10,10 0 0,0 22,12A10,10 0 0,0 12,2M12,4C16.41,4 20,7.59 20,12C20,16.41 16.41,20 12,20C7.59,20 4,16.41 4,12C4,7.59 7.59,4 12,4M9,9V15H15V9"/></symbol><symbol id="store" viewBox="0 0 24 24"><path d="M12,18H6V14H12M21,14V12L20,7H4L3,12V14H4V20H14V14H18V20H20V14M20,4H4V6H20V4Z"/></symbol><symbol id="tag-multiple" viewBox="0 0 24 24"><path d="M5.5,9A1.5,1.5 0 0,0 7,7.5A1.5,1.5 0 0,0 5.5,6A1.5,1.5 0 0,0 4,7.5A1.5,1.5 0 0,0 5.5,9M17.41,11.58C17.77,11.94 18,12.44 18,13C18,13.55 17.78,14.05 17.41,14.41L12.41,19.41C12.05,19.77 11.55,20 11,20C10.45,20 9.95,19.78 9.58,19.41L2.59,12.42C2.22,12.05 2,11.55 2,11V6C2,4.89 2.89,4 4,4H9C9.55,4 10.05,4.22 10.41,4.58L17.41,11.58M13.54,5.71L14.54,4.71L21.41,11.58C21.78,11.94 22,12.45 22,13C22,13.55 21.78,14.05 21.42,14.41L16.04,19.79L15.04,18.79L20.75,13L13.54,5.71Z"/></symbol><symbol id="tag" viewBox="0 0 24 24"><path d="M5.5,7A1.5,1.5 0 0,1 4,5.5A1.5,1.5 0 0,1 5.5,4A1.5,1.5 0 0,1 7,5.5A1.5,1.5 0 0,1 5.5,7M21.41,11.58L12.41,2.58C12.05,2.22 11.55,2 11,2H4C2.89,2 2,2.89 2,4V11C2,11.55 2.22,12.05 2.59,12.41L11.58,21.41C11.95,21.77 12.45,22 13,22C13.55,22 14.05,21.77 14.41,21.41L21.41,14.41C21.78,14.05 22,13.55 22,13C22,12.44 21.77,11.94 21.41,11.58Z"/></symbol><symbol id="telegram" viewBox="0 0 24 24"><path d="M9.78,18.65L10.06,14.42L17.74,7.5C18.08,7.19 17.67,7.04 17.22,7.31L7.74,13.3L3.64,12C2.76,11.75 2.75,11.14 3.84,10.7L19.81,4.54C20.54,4.21 21.24,4.72 20.96,5.84L18.24,18.65C18.05,19.56 17.5,19.78 16.74,19.36L12.6,16.3L10.61,18.23C10.38,18.46 10.19,18.65 9.78,18.65Z"/></symbol><symbol id="telemarketer" viewBox="0 0 24 24"><path d="M12,16c-4.71,0-8,2.467-8,6v2h16v-2C20,18.467,16.71,16,12,16z"/><path d="M19,7v2c0,1.478-0.805,2.771-2,3.463V11h-3v4h1c3.309,0,6-2.691,6-6V7H19z"/><path d="M12,4C9.243,4,7,6.243,7,9s2.243,5,5,5v-2c-1.654,0-3-1.346-3-3c0-0.502,0.136-0.971,0.356-1.388 c1.501,0.759,3.099,1.226,4.773,1.353c0.288,0.021,0.579,0.03,0.871,0.033c0,0,0,0.001,0,0.002h2C17,6.243,14.757,4,12,4z"/></symbol><symbol id="thumb-down" viewBox="0 0 24 24"><path d="M19,15H23V3H19M15,3H6C5.17,3 4.46,3.5 4.16,4.22L1.14,11.27C1.05,11.5 1,11.74 1,12V14A2,2 0 0,0 3,16H9.31L8.36,20.57C8.34,20.67 8.33,20.77 8.33,20.88C8.33,21.3 8.5,21.67 8.77,21.94L9.83,23L16.41,16.41C16.78,16.05 17,15.55 17,15V5C17,3.89 16.1,3 15,3Z"/></symbol><symbol id="thumb-up" viewBox="0 0 24 24"><path d="M23,10C23,8.89 22.1,8 21,8H14.68L15.64,3.43C15.66,3.33 15.67,3.22 15.67,3.11C15.67,2.7 15.5,2.32 15.23,2.05L14.17,1L7.59,7.58C7.22,7.95 7,8.45 7,9V19A2,2 0 0,0 9,21H18C18.83,21 19.54,20.5 19.84,19.78L22.86,12.73C22.95,12.5 23,12.26 23,12V10M1,21H5V9H1V21Z"/></symbol><symbol id="timer-off" viewBox="0 0 24 24"><path d="M12,20A7,7 0 0,1 5,13C5,11.72 5.35,10.5 5.95,9.5L15.5,19.04C14.5,19.65 13.28,20 12,20M3,4L1.75,5.27L4.5,8.03C3.55,9.45 3,11.16 3,13A9,9 0 0,0 12,22C13.84,22 15.55,21.45 17,20.5L19.5,23L20.75,21.73L13.04,14L3,4M11,9.44L13,11.44V8H11M15,1H9V3H15M19.04,4.55L17.62,5.97C16.07,4.74 14.12,4 12,4C10.17,4 8.47,4.55 7.05,5.5L8.5,6.94C9.53,6.35 10.73,6 12,6A7,7 0 0,1 19,13C19,14.27 18.65,15.47 18.06,16.5L19.5,17.94C20.45,16.53 21,14.83 21,13C21,10.88 20.26,8.93 19.03,7.39L20.45,5.97L19.04,4.55Z"/></symbol><symbol id="timer" viewBox="0 0 24 24"><path d="M12,20A7,7 0 0,1 5,13A7,7 0 0,1 12,6A7,7 0 0,1 19,13A7,7 0 0,1 12,20M19.03,7.39L20.45,5.97C20,5.46 19.55,5 19.04,4.56L17.62,6C16.07,4.74 14.12,4 12,4A9,9 0 0,0 3,13A9,9 0 0,0 12,22C17,22 21,17.97 21,13C21,10.88 20.26,8.93 19.03,7.39M11,14H13V8H11M15,1H9V3H15V1Z"/></symbol><symbol id="trash" viewBox="0 0 24 24"><path d="M9,3V4H4V6H5V19A2,2 0 0,0 7,21H17A2,2 0 0,0 19,19V6H20V4H15V3H9M7,6H17V19H7V6M9,8V17H11V8H9M13,8V17H15V8H13Z"/></symbol><symbol id="twitter" viewBox="0 0 24 24"><path d="M22.46,6C21.69,6.35 20.86,6.58 20,6.69C20.88,6.16 21.56,5.32 21.88,4.31C21.05,4.81 20.13,5.16 19.16,5.36C18.37,4.5 17.26,4 16,4C13.65,4 11.73,5.92 11.73,8.29C11.73,8.63 11.77,8.96 11.84,9.27C8.28,9.09 5.11,7.38 3,4.79C2.63,5.42 2.42,6.16 2.42,6.94C2.42,8.43 3.17,9.75 4.33,10.5C3.62,10.5 2.96,10.3 2.38,10C2.38,10 2.38,10 2.38,10.03C2.38,12.11 3.86,13.85 5.82,14.24C5.46,14.34 5.08,14.39 4.69,14.39C4.42,14.39 4.15,14.36 3.89,14.31C4.43,16 6,17.26 7.89,17.29C6.43,18.45 4.58,19.13 2.56,19.13C2.22,19.13 1.88,19.11 1.54,19.07C3.44,20.29 5.7,21 8.12,21C16,21 20.33,14.46 20.33,8.79C20.33,8.6 20.33,8.42 20.32,8.23C21.16,7.63 21.88,6.87 22.46,6Z"/></symbol><symbol id="vehicles" viewBox="0 0 24 24"><path d="M21.1230769,2.375 C20.856358,1.55 20.0564103,1 19.2564103,1 L4.58974359,1 C3.65641026,1 2.98974359,1.55 2.72307692,2.375 L-0.0769230769,10.625 L-0.0769230769,21.625 C-0.0769230769,22.45 0.456410256,23 1.25641026,23 L2.58974359,23 C3.38974359,23 3.92307692,22.45 3.92307692,21.625 L3.92307692,20.25 L19.9230769,20.25 L19.9230769,21.625 C19.9230769,22.45 20.4564103,23 21.2564103,23 L22.5897436,23 C23.3897436,23 23.9230769,22.45 23.9230769,21.625 L23.9230769,10.625 L21.1230769,2.375 L21.1230769,2.375 Z M4.58974359,16.125 C3.52307692,16.125 2.58974359,15.1625 2.58974359,14.0625 C2.58974359,12.9625 3.52307692,12 4.58974359,12 C5.65641026,12 6.58974359,12.9625 6.58974359,14.0625 C6.58974359,15.1625 5.65641026,16.125 4.58974359,16.125 L4.58974359,16.125 Z M19.2564103,16.125 C18.1897436,16.125 17.2564103,15.1625 17.2564103,14.0625 C17.2564103,12.9625 18.1897436,12 19.2564103,12 C20.3230769,12 21.2564103,12.9625 21.2564103,14.0625 C21.2564103,15.1625 20.3230769,16.125 19.2564103,16.125 L19.2564103,16.125 Z M2.58974359,9.24999999 L4.58974359,3.0625 L19.2564103,3.0625 L21.2564103,9.24999999 L2.58974359,9.24999999 L2.58974359,9.24999999 Z"/></symbol><symbol id="verified-seller" viewBox="0 0 26 26"><path d="M23.0791187,13.2132473 L25.3555585,15.4401995 C25.6854778,15.7481237 25.7954506,16.1330289 25.6854778,16.5949152 C25.5535099,17.045804 25.2675799,17.3262347 24.8276887,17.4362075 L21.7264515,18.2280132 L22.6007365,21.2962576 C22.7327045,21.7471464 22.62823,22.1320526 22.287314,22.4509734 C21.9683923,22.7918893 21.583487,22.8963638 21.1325983,22.7643969 L18.0643538,21.8901119 L17.2725482,24.9913481 C17.1625754,25.4312402 16.8821446,25.7171693 16.4312549,25.8491372 C16.2992879,25.8711314 16.1948134,25.8821289 16.1178324,25.8821289 C15.7769165,25.8821289 15.4964857,25.7611586 15.2765401,25.5192188 L13.0495879,23.2427791 L10.8226358,25.5192188 C10.5147116,25.8491372 10.1298063,25.95911 9.66791999,25.8491372 C9.21703126,25.7281668 8.9366005,25.4422368 8.82662771,24.9913481 L8.03482206,21.8901119 L4.9665776,22.7643969 C4.51568887,22.8963638 4.13078361,22.7918893 3.81186184,22.4509734 C3.47094589,22.1320526 3.3664714,21.7471464 3.49843835,21.2962576 L4.37272336,18.2280132 L1.27148716,17.4362075 C0.831595018,17.3262347 0.545665964,17.045804 0.413698026,16.5949152 C0.303725237,16.1330289 0.413698026,15.7481237 0.743617378,15.4401995 L3.02005618,13.2132473 L0.743617378,10.9862961 C0.413698026,10.6783719 0.303725237,10.2934666 0.413698026,9.83158034 C0.545665964,9.38069063 0.831595018,9.10025987 1.27148716,8.99028708 L4.37272336,8.19848142 L3.49843835,5.13023696 C3.3664714,4.67934823 3.47094589,4.29444298 3.81186184,3.9755212 C4.13078361,3.63460526 4.51568887,3.53013076 4.9665776,3.6620987 L8.03482206,4.5363837 L8.82662771,1.43514652 C8.9366005,0.984257792 9.21703126,0.703827032 9.66791999,0.593854243 C10.1188087,0.461886305 10.503715,0.566360799 10.8226358,0.907276741 L13.0495879,3.2002124 L15.2765401,0.907276741 C15.5954609,0.577358374 15.9803662,0.472883879 16.4312549,0.593854243 C16.8821446,0.703827032 17.1625754,0.984257792 17.2725482,1.43514652 L18.0643538,4.5363837 L21.1325983,3.6620987 C21.583487,3.53013076 21.9683923,3.63460526 22.287314,3.9755212 C22.62823,4.29444298 22.7327045,4.67934823 22.6007365,5.13023696 L21.7264515,8.19848142 L24.8276887,8.99028708 C25.2675799,9.10025987 25.5535099,9.38069063 25.6854778,9.83158034 C25.7954506,10.2934666 25.6854778,10.6783719 25.3555585,10.9862961 L23.0791187,13.2132473 Z M19.9861777,10.5524023 C19.9861777,10.3185585 19.9020431,10.1197917 19.7337738,9.95610119 L18.5078127,8.763499 C18.3395435,8.59980852 18.1352162,8.51796329 17.8948318,8.51796329 C17.654447,8.51796329 17.4501202,8.59980852 17.281851,8.763499 L11.3683894,14.5248192 L8.718149,11.9379251 C8.54987977,11.7742346 8.345553,11.6923894 8.10516815,11.6923894 C7.86478385,11.6923894 7.66045654,11.7742346 7.49218731,11.9379251 L6.26622615,13.1305273 C6.09795692,13.2942178 6.01382231,13.4929846 6.01382231,13.7268284 C6.01382231,13.9606716 6.09795692,14.159439 6.26622615,14.3231295 L9.52944738,17.497555 L10.7554085,18.6901572 C10.9236778,18.8538477 11.1280051,18.935693 11.3683894,18.935693 C11.6087742,18.935693 11.813101,18.8538477 11.9813702,18.6901572 L13.2073319,17.497555 L19.7337738,11.1487034 C19.9020431,10.9850129 19.9861777,10.7862455 19.9861777,10.5524023 Z" fill-rule="nonzero"/></symbol><symbol id="view-dashboard" viewBox="0 0 24 24"><path d="M13,3V9H21V3M13,21H21V11H13M3,21H11V15H3M3,13H11V3H3V13Z"/></symbol><symbol id="whatsapp" viewBox="0 0 24 24"><path d="M16.75,13.96C17,14.09 17.16,14.16 17.21,14.26C17.27,14.37 17.25,14.87 17,15.44C16.8,16 15.76,16.54 15.3,16.56C14.84,16.58 14.83,16.92 12.34,15.83C9.85,14.74 8.35,12.08 8.23,11.91C8.11,11.74 7.27,10.53 7.31,9.3C7.36,8.08 8,7.5 8.26,7.26C8.5,7 8.77,6.97 8.94,7H9.41C9.56,7 9.77,6.94 9.96,7.45L10.65,9.32C10.71,9.45 10.75,9.6 10.66,9.76L10.39,10.17L10,10.59C9.88,10.71 9.74,10.84 9.88,11.09C10,11.35 10.5,12.18 11.2,12.87C12.11,13.75 12.91,14.04 13.15,14.17C13.39,14.31 13.54,14.29 13.69,14.13L14.5,13.19C14.69,12.94 14.85,13 15.08,13.08L16.75,13.96M12,2A10,10 0 0,1 22,12A10,10 0 0,1 12,22C10.03,22 8.2,21.43 6.65,20.45L2,22L3.55,17.35C2.57,15.8 2,13.97 2,12A10,10 0 0,1 12,2M12,4A8,8 0 0,0 4,12C4,13.72 4.54,15.31 5.46,16.61L4.5,19.5L7.39,18.54C8.69,19.46 10.28,20 12,20A8,8 0 0,0 20,12A8,8 0 0,0 12,4Z"/></symbol><symbol id="wreath" viewBox="0 0 2271 2066"><path d="M1306 1747c0,0 70,-270 302,-304 22,-3 -68,239 -302,304zm197 -70c0,0 63,-63 207,-65 144,-2 210,38 242,59 32,21 -346,107 -449,6zm162 -120c0,0 -44,-218 160,-371 36,-27 30,273 -160,371zm37 14c0,0 143,-185 408,-117 46,11 -198,209 -408,117zm124 -139c0,0 24,-188 283,-262 97,-28 -93,269 -283,262zm110 -575c102,208 -21,381 -21,381 -107,-138 2,-421 21,-381zm335 46c-65,223 -272,268 -272,268 13,-175 284,-311 272,-268zm-442 -364c217,90 181,331 181,331 -97,-4 -255,-362 -181,-331zm206 453c0,0 -16,-241 171,-331 52,-26 -13,293 -171,331zm12 -245c0,0 -65,-243 107,-374 48,-36 46,302 -107,374zm-92 -564c30,-52 158,194 48,398 -1,3 -2,5 -4,8 0,0 -2,-3 -5,-8 -27,-41 -138,-230 -39,-398zm-165 -179c10,-34 169,166 86,369 -1,2 -2,4 -2,6 0,0 -2,-2 -5,-6 -24,-32 -136,-193 -79,-369zm-230 275c290,7 358,235 358,235 -264,-13 -374,-236 -358,-235zm-42 -267c-3,-53 241,90 270,300 1,10 3,9 -7,5 -43,-14 -250,-95 -263,-305zm-855 1431c232,34 302,304 302,304 -234,-65 -324,-307 -302,-304zm-127 357c27,-20 122,-64 214,-73 79,-8 155,35 175,47 29,1 112,7 211,48 99,-41 182,-47 211,-47 19,-13 95,-56 174,-48 92,9 188,53 215,74 26,20 -262,97 -385,-14 -67,9 -126,28 -176,52 73,47 110,78 190,168 16,17 20,31 14,34 -6,4 -53,33 -63,16 0,0 -40,-115 -180,-197 -140,82 -204,199 -204,199 -16,22 -47,-12 -52,-16 -6,-3 -19,-9 -5,-27 70,-85 149,-141 222,-177 -51,-24 -109,-43 -177,-52 -123,111 -410,33 -384,13zm-217 -129c32,-21 98,-61 242,-59 144,1 208,65 208,65 -104,101 -482,15 -450,-6zm127 -486c205,153 160,372 160,372 -190,-98 -196,-398 -160,-372zm-284 268c265,-67 407,117 407,117 -210,92 -453,-105 -407,-117zm0 -283c260,74 283,262 283,262 -189,7 -380,-290 -283,-262zm194 68c0,0 -122,-173 -21,-381 19,-40 129,243 21,381zm-84 -67c0,0 -207,-46 -272,-269 -12,-42 259,94 272,269zm170 -632c75,-32 -84,327 -180,331 0,0 -36,-241 180,-331zm-205 453c-159,-39 -224,-357 -172,-331 187,90 172,331 172,331zm-12 -245c-154,-72 -156,-410 -107,-374 171,131 107,374 107,374zm92 -564c111,189 -45,406 -45,406 -117,-206 14,-459 45,-406zm165 -179c63,197 -84,375 -84,375 -89,-205 73,-410 84,-375zm229 275c17,-1 -93,222 -358,235 0,0 69,-228 358,-235zm-226 23c51,-201 271,-342 268,-290 -12,203 -206,286 -258,303 -18,6 -16,10 -10,-13z"/></symbol><symbol id="youtube" viewBox="0 0 24 24"><path d="M10,15L15.19,12L10,9V15M21.56,7.17C21.69,7.64 21.78,8.27 21.84,9.07C21.91,9.87 21.94,10.56 21.94,11.16L22,12C22,14.19 21.84,15.8 21.56,16.83C21.31,17.73 20.73,18.31 19.83,18.56C19.36,18.69 18.5,18.78 17.18,18.84C15.88,18.91 14.69,18.94 13.59,18.94L12,19C7.81,19 5.2,18.84 4.17,18.56C3.27,18.31 2.69,17.73 2.44,16.83C2.31,16.36 2.22,15.73 2.16,14.93C2.09,14.13 2.06,13.44 2.06,12.84L2,12C2,9.81 2.16,8.2 2.44,7.17C2.69,6.27 3.27,5.69 4.17,5.44C4.64,5.31 5.5,5.22 6.82,5.16C8.12,5.09 9.31,5.06 10.41,5.06L12,5C16.19,5 18.8,5.16 19.83,5.44C20.73,5.69 21.31,6.27 21.56,7.17Z"/></symbol></svg>